<?xml version="1.0" encoding="UTF-8"?>
<svg version="1.1" xmlns="http://www.w3.org/2000/svg" width="1024" height="1024">
<path d="M0 0 C337.92 0 675.84 0 1024 0 C1024 337.92 1024 675.84 1024 1024 C686.08 1024 348.16 1024 0 1024 C0 686.08 0 348.16 0 0 Z " fill="#DFDFDF" transform="translate(0,0)"/>
<path d="M0 0 C0.68769832 -0.00205263 1.37539664 -0.00410527 2.08393431 -0.0062201 C4.39931336 -0.011896 6.71463305 -0.01043213 9.03001785 -0.00901413 C10.70243818 -0.01159743 12.37485789 -0.01461049 14.04727674 -0.01801753 C18.65183649 -0.02609492 23.25638066 -0.02787751 27.86094666 -0.028615 C32.8235885 -0.03046426 37.78622224 -0.03801094 42.74885941 -0.04475021 C53.60418429 -0.05833915 64.45950548 -0.06435908 75.31483746 -0.06876087 C82.0910252 -0.07152226 88.86721151 -0.07575941 95.64339828 -0.08026505 C114.39926819 -0.09245827 133.15513696 -0.10275759 151.91101074 -0.10614014 C153.11170793 -0.1063597 154.31240512 -0.10657927 155.54948707 -0.10680549 C157.35487628 -0.10713291 157.35487628 -0.10713291 159.196738 -0.10746694 C161.63573249 -0.1079104 164.07472698 -0.10835697 166.51372147 -0.10880661 C167.72355057 -0.10902804 168.93337968 -0.10924947 170.17987028 -0.10947761 C189.78720336 -0.11342635 209.3944993 -0.13088244 229.00181803 -0.15416613 C249.12524561 -0.17787012 269.24865453 -0.19034155 289.3720963 -0.19150805 C300.67354432 -0.19242533 311.97494393 -0.19819097 323.27637863 -0.21632767 C332.89909679 -0.23171576 342.5217516 -0.23685673 352.14447972 -0.22858956 C357.05479247 -0.22467854 361.96497756 -0.22563477 366.87527466 -0.23964691 C371.37090251 -0.25235853 375.86630643 -0.25121243 380.36193386 -0.2390562 C381.98778919 -0.23709445 383.61366023 -0.24019965 385.23949346 -0.24890056 C402.78853797 -0.33686675 402.78853797 -0.33686675 408.76236033 4.37095904 C411.42837343 7.07587736 412.52178466 9.49015408 412.68950272 13.19392776 C412.17885618 17.21526923 411.85802946 19.11857499 409.18950272 22.13142776 C404.21178761 24.66775117 400.5589416 25.5074109 394.89495373 25.51453781 C394.19137606 25.51949733 393.4877984 25.52445684 392.7629002 25.52956665 C390.41142073 25.54249336 388.06051183 25.53414769 385.70901871 25.52583694 C384.00370684 25.53072721 382.29839829 25.53691765 380.59309536 25.54429483 C375.91159466 25.56069966 371.23026229 25.55837534 366.54874289 25.55291986 C361.49823986 25.55025042 356.44778177 25.56477969 351.39729691 25.57701492 C341.50547626 25.5980731 331.61371422 25.60260961 321.72187381 25.60082704 C313.68385007 25.59951987 305.64584462 25.60332124 297.60782433 25.61075211 C295.29331448 25.61285127 292.97880463 25.61494887 290.66429478 25.61704493 C288.93637789 25.61861022 288.93637789 25.61861022 287.17355359 25.62020713 C265.38647435 25.63911029 243.59942878 25.63805876 221.81234474 25.6312378 C201.87078951 25.62565945 181.92936265 25.64650012 161.98783743 25.67959827 C141.51853114 25.71330922 121.0492864 25.72850703 100.57995182 25.72388124 C89.08520121 25.72163429 77.5905693 25.72691302 66.09584236 25.75177383 C56.31243439 25.77275315 46.52921026 25.77641223 36.74579483 25.75747424 C31.7525977 25.7482965 26.75974365 25.74723579 21.76657295 25.7678299 C17.19762741 25.78646634 12.62930771 25.78211926 8.06038655 25.75928408 C6.40572118 25.75507978 4.75100851 25.75935945 3.09639304 25.77288002 C0.84957199 25.78999255 -1.395052 25.77638391 -3.64178944 25.75504684 C-5.51457415 25.75545542 -5.51457415 25.75545542 -7.42519289 25.75587225 C-12.3646014 24.84476174 -15.19519157 22.33411737 -18.18549728 18.25642776 C-19.43017203 14.02453361 -19.37183668 10.43137164 -17.62299728 6.38142776 C-12.84682284 0.45238362 -7.16975683 0.00728086 0 0 Z " fill="#1B1C1C" transform="translate(368.81049728393555,592.8685722351074)"/>
<path d="M0 0 C7.615652 -0.09329951 15.23124362 -0.16406551 22.84733963 -0.20724869 C26.38508763 -0.22799045 29.92244034 -0.2560566 33.45996094 -0.30175781 C37.54105088 -0.35414236 41.62173548 -0.37305571 45.703125 -0.390625 C47.578862 -0.42159271 47.578862 -0.42159271 49.49249268 -0.45318604 C61.26464179 -0.45614907 71.14083513 1.8924668 79.734375 10.22265625 C88.30438012 20.72830046 90.75240451 31.68385988 90 45 C88.24735929 57.25240567 81.82585803 66.23261385 72.13671875 73.63671875 C70 75 70 75 68 75 C68.31638428 75.52730713 68.63276855 76.05461426 68.95874023 76.59790039 C69.40419189 77.34031982 69.84964355 78.08273926 70.30859375 78.84765625 C70.80399658 79.67330078 71.29939941 80.49894531 71.80981445 81.34960938 C72.90349725 83.17246871 73.99708301 84.99538628 75.09057617 86.81835938 C77.57641073 90.96226633 80.06274055 95.10585899 82.5546875 99.24609375 C84.70955542 102.82691021 86.85644019 106.41240085 89 110 C89.34998047 110.58346191 89.69996094 111.16692383 90.06054688 111.76806641 C91.06581445 113.44678837 92.06431366 115.12955783 93.0625 116.8125 C93.63097656 117.76769531 94.19945312 118.72289062 94.78515625 119.70703125 C96 122 96 122 96 124 C87.42 124 78.84 124 70 124 C68.72125 121.69 67.4425 119.38 66.125 117 C62.42504715 110.37283877 58.52434048 103.89843446 54.45166016 97.49414062 C47 85.76473219 47 85.76473219 47 83 C46.34 83 45.68 83 45 83 C44.67 81.68 44.34 80.36 44 79 C36.74 79 29.48 79 22 79 C22 93.85 22 108.7 22 124 C14.41 124 6.82 124 -1 124 C-1.02255473 108.12771627 -1.04098369 92.25544519 -1.05181217 76.3831501 C-1.05697318 69.01372835 -1.06401217 61.64431726 -1.07543945 54.27490234 C-1.08539224 47.853334 -1.09185485 41.43177336 -1.09408849 35.01019752 C-1.09539459 31.60857621 -1.09847406 28.20697696 -1.10573006 24.8053627 C-1.11294482 21.01231811 -1.11399075 17.21931984 -1.11352539 13.42626953 C-1.11712067 12.29266998 -1.12071594 11.15907043 -1.12442017 9.99111938 C-1.1230455 8.96184326 -1.12167084 7.93256714 -1.12025452 6.87210083 C-1.12117631 5.97427446 -1.1220981 5.0764481 -1.12304783 4.15141487 C-1 2 -1 2 0 0 Z " fill="#040404" transform="translate(600,438)"/>
<path d="M0 0 C9.72590241 7.47786076 15.02205831 18.30977919 18.43359375 29.87109375 C11.12602668 34.74280513 2.94740108 35.55697571 -5.56640625 36.87109375 C-5.99953125 35.83984375 -6.43265625 34.80859375 -6.87890625 33.74609375 C-7.44016724 32.45388822 -8.00267377 31.16222299 -8.56640625 29.87109375 C-9.02015625 28.81921875 -9.47390625 27.76734375 -9.94140625 26.68359375 C-12.42998823 22.37643264 -15.98156505 19.70659236 -20.56640625 17.87109375 C-28.10492685 17.04602525 -35.87401557 16.5097828 -42.11328125 21.40625 C-46.19981742 25.5257421 -46.76059298 29.24501937 -46.94140625 34.87109375 C-46.80636787 39.62679332 -46.32522868 42.87555782 -43.56640625 46.87109375 C-42.88578125 47.86109375 -42.20515625 48.85109375 -41.50390625 49.87109375 C-35.01172068 57.28030203 -24.47764085 60.82309163 -15.69140625 64.68359375 C2.2337793 72.78041738 15.59295633 82.22378831 23.43359375 100.87109375 C27.23054167 111.22640625 26.71660894 123.83517558 22.7578125 134.05859375 C15.67153109 149.10910295 5.38928038 156.90840701 -9.87109375 162.75390625 C-25.02008948 166.93903737 -43.1412769 163.89043634 -56.5546875 156.37109375 C-58.56640625 154.87109375 -58.56640625 154.87109375 -59.56640625 151.87109375 C-60.87613277 151.15916772 -62.21275415 150.49547202 -63.56640625 149.87109375 C-68.40536883 145.45291052 -70.65025942 140.83193788 -72.94140625 134.80859375 C-73.20421387 134.12394043 -73.46702148 133.43928711 -73.73779297 132.73388672 C-75.20629763 128.64791304 -75.85035805 125.20473904 -75.56640625 120.87109375 C-67.21377449 119.91650726 -58.9685659 119.76070041 -50.56640625 119.87109375 C-50.27507812 120.53496094 -49.98375 121.19882812 -49.68359375 121.8828125 C-46.41957237 128.91380196 -43.05939146 133.95786181 -35.56640625 136.87109375 C-32.93389604 137.0904696 -30.4461105 137.20424031 -27.81640625 137.18359375 C-27.0999292 137.1794043 -26.38345215 137.17521484 -25.64526367 137.17089844 C-17.99830627 137.00728993 -12.11770436 135.42239186 -6.56640625 129.87109375 C-2.39227729 124.25760997 -2.8550183 117.551599 -3.56640625 110.87109375 C-5.02328101 105.21768666 -8.17528197 101.68075298 -12.92578125 98.42578125 C-19.6180692 94.48564722 -26.67695826 91.20241144 -33.68212891 87.86230469 C-44.92398253 82.4920426 -55.95291465 77.10172309 -63.56640625 66.87109375 C-64.14390625 66.33484375 -64.72140625 65.79859375 -65.31640625 65.24609375 C-66.86316051 63.54466406 -67.18043072 62.1097518 -67.56640625 59.87109375 C-68.22640625 59.87109375 -68.88640625 59.87109375 -69.56640625 59.87109375 C-74.99179799 44.38935088 -77.39243201 30.50434082 -71.05859375 14.90234375 C-69.01286031 10.74661299 -66.67158651 7.29432482 -63.56640625 3.87109375 C-62.84453125 3.00484375 -62.12265625 2.13859375 -61.37890625 1.24609375 C-42.5287446 -14.67182053 -19.67107744 -13.27583601 0 0 Z " fill="#040404" transform="translate(309.56640625,453.12890625)"/>
<path d="M0 0 C5.94 0 11.88 0 18 0 C20.85595757 6.04791015 23.47823686 12.11244442 25.79296875 18.38671875 C26.32199417 19.80853202 26.85129929 21.23024125 27.38085938 22.65185547 C27.78353027 23.73475861 27.78353027 23.73475861 28.19433594 24.83953857 C30.49488303 31.00866475 32.8413158 37.16061611 35.1875 43.3125 C35.60610794 44.41025253 35.60610794 44.41025253 36.03317261 45.53018188 C39.76291352 55.29719445 43.58562912 65.01784578 47.5625 74.6875 C51.39211729 84.00489019 55.15148582 93.3464305 58.81222534 102.73135376 C59.34819215 104.103721 59.88617263 105.47530375 60.42630005 106.84603882 C61.17810097 108.75580223 61.92211242 110.66842278 62.6640625 112.58203125 C63.09154785 113.67749268 63.5190332 114.7729541 63.95947266 115.90161133 C65 119 65 119 66 125 C58.41 125 50.82 125 43 125 C41.700625 121.638125 40.40125 118.27625 39.0625 114.8125 C38.44967163 113.23625854 38.44967163 113.23625854 37.82446289 111.62817383 C37.5021167 110.78794678 37.17977051 109.94771973 36.84765625 109.08203125 C36.51773682 108.22843018 36.18781738 107.3748291 35.84790039 106.49536133 C35 104 35 104 34 99 C17.5 99 1 99 -16 99 C-16.33 100.98 -16.66 102.96 -17 105 C-17.95246076 107.55703244 -18.93372999 110.05525661 -20 112.5625 C-21.75771333 116.72048696 -23.10570905 120.52854525 -24 125 C-31.92 125 -39.84 125 -48 125 C-44.62871287 112.63861386 -44.62871287 112.63861386 -42.0625 106.4375 C-41.79945068 105.79458008 -41.53640137 105.15166016 -41.26538086 104.48925781 C-40.51555712 102.65732559 -39.75803215 100.82855095 -39 99 C-36.70302178 93.40546592 -34.54626864 87.7749702 -32.48144531 82.09106445 C-29.94010851 75.09833722 -27.30888556 68.27056761 -24.1171875 61.54296875 C-22.44523532 57.73723144 -21.23455659 53.80330184 -19.96875 49.84765625 C-18.82761989 46.49328589 -17.4093113 43.33445421 -15.92578125 40.12109375 C-15.02657075 38.06087729 -14.30675801 36.01595935 -13.625 33.875 C-10.46586696 24.05421686 -6.35112157 14.50724995 -1.98046875 5.171875 C-0.90873569 2.89640863 -0.90873569 2.89640863 0 0 Z " fill="#040404" transform="translate(520,437)"/>
<path d="M0 0 C0.67933594 0.57363281 1.35867188 1.14726562 2.05859375 1.73828125 C2.93386719 2.46660156 3.80914062 3.19492187 4.7109375 3.9453125 C12.75553055 10.90498196 12.75553055 10.90498196 15.05859375 15.73828125 C13.62841881 20.02880607 10.73763773 21.70623694 7.24609375 24.42578125 C6.61638672 24.93689453 5.98667969 25.44800781 5.33789062 25.97460938 C4.72365234 26.45736328 4.10941406 26.94011719 3.4765625 27.4375 C2.91735107 27.87924561 2.35813965 28.32099121 1.78198242 28.77612305 C0.05859375 29.73828125 0.05859375 29.73828125 -3.94140625 29.73828125 C-4.16828125 28.95453125 -4.39515625 28.17078125 -4.62890625 27.36328125 C-6.29992533 24.02124309 -7.49487958 23.94055799 -10.94140625 22.73828125 C-12.08609375 21.77921875 -12.08609375 21.77921875 -13.25390625 20.80078125 C-20.83244182 14.98469581 -30.65204669 13.98471963 -39.94140625 14.73828125 C-51.17059293 16.89252099 -59.27812795 22.50346058 -65.94140625 31.73828125 C-70.71827233 39.07129117 -71.40681933 46.32320153 -71.50390625 54.86328125 C-71.52614258 56.24036255 -71.52614258 56.24036255 -71.54882812 57.64526367 C-71.38808795 68.32778779 -67.35430805 77.09859851 -59.94140625 84.73828125 C-50.98998103 92.4861535 -42.02339917 95.41428634 -30.2421875 95.08203125 C-19.16878402 93.92882473 -9.59133853 88.77926438 -1.94140625 80.73828125 C2.61423436 82.32360934 6.37335144 84.72831206 10.37109375 87.36328125 C11.01626953 87.78351563 11.66144531 88.20375 12.32617188 88.63671875 C13.90620099 89.66666366 15.48275422 90.70193753 17.05859375 91.73828125 C16.56359375 93.71828125 16.56359375 93.71828125 16.05859375 95.73828125 C15.39859375 95.73828125 14.73859375 95.73828125 14.05859375 95.73828125 C13.81109375 96.29515625 13.56359375 96.85203125 13.30859375 97.42578125 C8.15343666 106.96282188 -2.50686436 113.3664603 -12.671875 116.609375 C-30.59666944 121.66508625 -47.77020069 120.83826454 -64.4140625 111.9453125 C-78.38401805 103.56021477 -87.72663088 92.21361 -92.94140625 76.73828125 C-93.24046875 75.92230469 -93.53953125 75.10632813 -93.84765625 74.265625 C-99.04077001 58.32565082 -96.28265882 38.54304063 -89.4453125 23.48046875 C-81.06039579 8.19160762 -65.52371638 -3.22780317 -48.94140625 -8.26171875 C-32.8259595 -11.54143632 -13.50750407 -10.18987149 0 0 Z " fill="#040404" transform="translate(455.94140625,445.26171875)"/>
<path d="M0 0 C36.63 0 73.26 0 111 0 C111 7.92 111 15.84 111 24 C96.48 24 81.96 24 67 24 C67 66.9 67 109.8 67 154 C59.08 154 51.16 154 43 154 C43 110.77 43 67.54 43 23 C28.81 23 14.62 23 0 23 C0 15.41 0 7.82 0 0 Z " fill="#050505" transform="translate(691,408)"/>
<path d="M0 0 C0.69787311 -0.00465992 1.39574621 -0.00931984 2.11476699 -0.01412097 C4.47091025 -0.0261436 6.82648455 -0.016648 9.1826334 -0.00736332 C10.88179314 -0.01153307 12.58095009 -0.01700861 14.28010184 -0.02368313 C18.96310478 -0.03820359 23.64593272 -0.03387253 28.32894552 -0.02651632 C33.37402325 -0.02180319 38.4190621 -0.03427799 43.46412754 -0.04453373 C53.3531561 -0.0617636 63.24212123 -0.06255308 73.13116091 -0.05732083 C81.16595968 -0.05328569 89.20073966 -0.05471486 97.23553753 -0.06006908 C98.94836873 -0.06119172 98.94836873 -0.06119172 100.69580259 -0.06233703 C103.01525907 -0.06386845 105.33471554 -0.06540679 107.65417201 -0.066952 C129.42448434 -0.08069218 151.19476077 -0.07522868 172.96507228 -0.06376678 C192.89851606 -0.05383268 212.83186705 -0.06677548 232.76529651 -0.09070098 C253.21412488 -0.1150609 273.66290997 -0.12470752 294.11175257 -0.11804825 C305.59977196 -0.11454912 317.08771995 -0.11683368 328.57572842 -0.13429928 C338.35524738 -0.14898246 348.13464466 -0.14970774 357.91416114 -0.13222837 C362.90703574 -0.12368388 367.89969263 -0.12165246 372.89255619 -0.13687992 C377.45901608 -0.15063488 382.02506987 -0.1460834 386.59150571 -0.12664068 C388.24759885 -0.12285192 389.9037238 -0.12588455 391.55978882 -0.13625234 C393.80352393 -0.14930548 396.04583291 -0.1379458 398.289505 -0.12025452 C399.53791811 -0.12014718 400.78633122 -0.12003984 402.07257503 -0.11992925 C405.79048566 0.47331212 406.9694724 1.40744023 409.20767307 4.38031673 C409.77017307 6.94281673 409.77017307 6.94281673 409.20767307 9.38031673 C405.23744433 12.46370537 402.14676916 12.75589953 397.20048523 12.75784016 C396.15527916 12.76438064 396.15527916 12.76438064 395.08895782 12.77105325 C392.74848517 12.78202243 390.40860003 12.7715801 388.06813145 12.76126766 C386.37549572 12.76472357 384.68286224 12.76948768 382.99023348 12.7754494 C378.33454637 12.78799815 373.67904323 12.78177143 369.02335536 12.77249074 C364.00422046 12.76571649 358.98511768 12.77617337 353.96598911 12.7844305 C344.13204141 12.79778711 334.2981623 12.7948816 324.46421187 12.78619258 C316.47427489 12.77942441 308.48435717 12.77849556 300.49441814 12.78176403 C299.35835238 12.78222373 298.22228661 12.78268343 297.05179461 12.78315706 C294.7440952 12.78411621 292.43639579 12.78508885 290.12869639 12.78607483 C268.47759594 12.79463427 246.82653357 12.7847857 225.17543937 12.76867373 C206.58549755 12.75526825 187.99561192 12.75759948 169.40567112 12.77143002 C147.83183366 12.78747293 126.25802959 12.79381215 104.684187 12.78459322 C102.38516208 12.78363755 100.08613716 12.78269444 97.78711224 12.78176403 C96.65586481 12.7813012 95.52461739 12.78083838 94.35908974 12.78036153 C86.37541682 12.7777679 78.39176501 12.78215061 70.40809536 12.78920269 C60.68353596 12.7976035 50.95904923 12.79536742 41.2344982 12.77936046 C36.26999896 12.77145887 31.30562105 12.76841821 26.34112263 12.77830791 C21.80070661 12.78721625 17.26052489 12.78238607 12.72013027 12.76637526 C11.07351926 12.76301103 9.42688864 12.76475812 7.78029012 12.77200262 C5.54958146 12.78106776 3.31968533 12.77182795 1.08901978 12.75784016 C-0.15223366 12.7573531 -1.3934871 12.75686604 -2.67235428 12.75636423 C-6.03836525 12.35066196 -7.4594295 11.81055365 -9.79232693 9.38031673 C-10.24029368 6.30854471 -10.43918423 4.35617208 -8.68950361 1.71658653 C-5.82946341 -0.29787284 -3.47207942 0.00286258 0 0 Z " fill="#D9DADA" transform="translate(365.79232692718506,599.619683265686)"/>
<path d="M0 0 C5.45347364 1.26824968 8.01285356 3.2557086 11 8 C11.79934182 11.85343085 11.33272985 15.11924451 9.9375 18.8125 C6.55499227 22.63146034 2.41547927 23.8474515 -2.51065356 24.37834883 C-3.75933905 24.37992003 -5.00802454 24.38149123 -6.29454899 24.38311005 C-6.99812665 24.38806956 -7.70170431 24.39302908 -8.42660251 24.39813888 C-10.77808199 24.41106559 -13.12899088 24.40271993 -15.48048401 24.39440918 C-17.18579588 24.39929945 -18.89110443 24.40548988 -20.59640735 24.41286707 C-25.27790806 24.4292719 -29.95924042 24.42694757 -34.64075983 24.4214921 C-39.69126286 24.41882265 -44.74172094 24.43335192 -49.79220581 24.44558716 C-59.68402646 24.46664533 -69.57578849 24.47118185 -79.4676289 24.46939927 C-87.50565265 24.4680921 -95.54365809 24.47189347 -103.58167839 24.47932434 C-105.89618824 24.4814235 -108.21069809 24.4835211 -110.52520794 24.48561716 C-112.25312482 24.48718245 -112.25312482 24.48718245 -114.01594912 24.48877937 C-135.80302836 24.50768252 -157.59007393 24.506631 -179.37715798 24.49981004 C-199.3187132 24.49423169 -219.26014007 24.51507236 -239.20166529 24.54817051 C-259.67097157 24.58188145 -280.14021632 24.59707927 -300.60955089 24.59245348 C-312.10430151 24.59020653 -323.59893342 24.59548526 -335.09366035 24.62034607 C-344.87706832 24.64132538 -354.66029246 24.64498446 -364.44370789 24.62604648 C-369.43690502 24.61686874 -374.42975906 24.61580802 -379.42292976 24.63640213 C-383.9918753 24.65503857 -388.560195 24.65069149 -393.12911617 24.62785631 C-394.78378154 24.62365202 -396.43849421 24.62793169 -398.09310967 24.64145225 C-400.33993073 24.65856479 -402.58455472 24.64495614 -404.83129215 24.62361908 C-406.70407686 24.62402766 -406.70407686 24.62402766 -408.61469561 24.62444448 C-413.55410411 23.71333398 -416.38469429 21.20268961 -419.375 17.125 C-420.62769277 12.86584458 -420.53725482 9.27244562 -418.8125 5.1875 C-416.72788114 2.67158069 -415.09891358 1.92129863 -412 1 C-412.165 1.763125 -412.33 2.52625 -412.5 3.3125 C-413.09145396 6.03596236 -413.09145396 6.03596236 -413 9 C-413.061875 10.010625 -413.12375 11.02125 -413.1875 12.0625 C-413.125625 13.031875 -413.06375 14.00125 -413 15 C-409.33829351 17.44113766 -407.60511187 17.25054096 -403.23890781 17.25168228 C-402.54441146 17.25458916 -401.8499151 17.25749604 -401.1343734 17.26049101 C-398.78981812 17.26783319 -396.4455211 17.26082817 -394.10096741 17.25396729 C-392.41005949 17.25627006 -390.71915258 17.25944534 -389.02824777 17.26342177 C-384.368076 17.27180373 -379.70798568 17.26762912 -375.04781353 17.26144934 C-370.02728723 17.25693967 -365.00677531 17.26390122 -359.98625183 17.26940918 C-350.1453579 17.27832095 -340.30449441 17.27637319 -330.46359927 17.2705839 C-322.46789682 17.26607416 -314.47220292 17.26545152 -306.47649956 17.26763153 C-305.34016281 17.267938 -304.20382606 17.26824446 -303.03305487 17.26856022 C-300.72487239 17.26919964 -298.41668992 17.26984807 -296.10850745 17.2705054 C-274.44407105 17.27621398 -252.77965155 17.26964266 -231.11521792 17.25890467 C-212.51275725 17.24996988 -193.91032154 17.25151958 -175.30786133 17.26074219 C-153.72452157 17.27143757 -132.14119663 17.27566334 -110.55785459 17.26951766 C-108.25767513 17.26888054 -105.95749567 17.2682518 -103.65731621 17.26763153 C-102.52547881 17.26732298 -101.39364141 17.26701443 -100.22750591 17.26669653 C-92.23885127 17.2649673 -84.250206 17.26788961 -76.26155281 17.27259064 C-66.52964038 17.2781914 -56.79776023 17.27670006 -47.06585152 17.26602915 C-42.09733829 17.26076139 -37.12887893 17.25873441 -32.16036606 17.26532745 C-27.61621677 17.27126631 -23.07217154 17.26804607 -18.52803176 17.25737235 C-16.88001376 17.25512951 -15.23198706 17.25629426 -13.58397461 17.26112393 C-11.35150085 17.2671669 -9.11938795 17.26100692 -6.88693333 17.25168228 C-5.64459574 17.25135758 -4.40225816 17.25103287 -3.12227398 17.25069833 C-0.16034474 17.01287464 1.51201454 16.56020712 4 15 C3.76586026 9.96521559 3.76586026 9.96521559 0.9375 6.0625 C0.298125 5.711875 -0.34125 5.36125 -1 5 C0.32 4.34 1.64 3.68 3 3 C1.02 2.01 1.02 2.01 -1 1 C-0.67 0.67 -0.34 0.34 0 0 Z " fill="#0A0A0A" transform="translate(770,594)"/>
<path d="M0 0 C1.39966465 -0.00274318 2.79932724 -0.00679747 4.19898474 -0.01204365 C8.03086216 -0.0226009 11.8625053 -0.01452095 15.69437242 -0.00329316 C19.83201484 0.0055653 23.96962715 -0.00289922 28.10726929 -0.00915527 C36.20556964 -0.01863421 44.30378078 -0.0120522 52.4020745 0.00010767 C61.82893072 0.01373511 71.25576574 0.01208928 80.6826293 0.00997434 C97.49592687 0.00678604 114.30918204 0.01844507 131.12246704 0.03804016 C147.448001 0.05706186 163.7734853 0.06412277 180.09902954 0.05854797 C197.87392153 0.05249622 215.64879169 0.05265476 233.42368186 0.06403381 C235.31707803 0.06524112 237.21047421 0.06644711 239.10387039 0.06765175 C240.50131231 0.06855706 240.50131231 0.06855706 241.92698538 0.06948065 C248.50348444 0.07336576 255.0799754 0.07296396 261.65647507 0.0710659 C269.66237776 0.06894841 277.66823688 0.07413454 285.67412727 0.08867946 C289.76143785 0.09594403 293.84868483 0.09998291 297.93600082 0.0954361 C301.67245749 0.0913805 305.40878244 0.09646523 309.14521904 0.10906217 C311.14756146 0.11340901 313.14991765 0.10787681 315.15225637 0.10207289 C316.91691069 0.11082118 316.91691069 0.11082118 318.71721458 0.11974621 C320.24971621 0.12104637 320.24971621 0.12104637 321.81317747 0.12237281 C324.21963501 0.3742218 324.21963501 0.3742218 326.21963501 2.3742218 C325.68392072 5.90993609 325.68392072 5.90993609 324.21963501 7.3742218 C322.41735181 7.47222054 320.61117992 7.49901225 318.80623436 7.49892044 C317.03319138 7.50250687 317.03319138 7.50250687 315.22432935 7.50616574 C313.90909461 7.50373325 312.59385987 7.50130076 311.23876953 7.49879456 C309.84046282 7.49977982 308.44215637 7.50121614 307.04385054 7.50306773 C303.991559 7.50613777 300.93928924 7.50601098 297.88699722 7.50351143 C292.92157664 7.49946558 287.95617325 7.5022138 282.99075317 7.50585938 C276.71704892 7.50995583 270.44334849 7.51218914 264.16964288 7.51227537 C251.83941656 7.51247779 239.50922971 7.52491965 227.17901611 7.54188538 C225.23964259 7.54449126 223.30026906 7.54709007 221.36089551 7.5496819 C218.42129604 7.55362051 215.48169657 7.55756699 212.54209714 7.56154312 C201.44974804 7.57650038 190.35739773 7.5901189 179.26504517 7.60224915 C178.25063782 7.60336271 177.23623047 7.60447627 176.19108351 7.60562357 C159.75796019 7.62319294 143.32486149 7.62606818 126.89173035 7.62439874 C110.03070753 7.62312007 93.16977646 7.64084741 76.3087889 7.67541671 C65.90353893 7.69608307 55.49850856 7.70139175 45.09324689 7.6870884 C37.96106311 7.67863437 30.82905014 7.68834761 23.69690244 7.7123979 C19.58054924 7.72571685 15.46460564 7.73087449 11.34825516 7.71427727 C7.57895416 7.69924742 3.81042533 7.70723261 0.04119201 7.73344681 C-1.96674132 7.74143267 -3.97472607 7.72481789 -5.9825989 7.70730424 C-13.27842965 7.78541114 -17.40474943 8.28692215 -22.78036499 13.3742218 C-25.6849387 17.07203333 -26.16968689 19.86343342 -26.25692749 24.5148468 C-26.28786499 25.66726868 -26.31880249 26.81969055 -26.35067749 28.0070343 C-26.36872437 29.20070618 -26.38677124 30.39437805 -26.40536499 31.6242218 C-26.45611756 34.00451729 -26.51059332 36.38473736 -26.56942749 38.7648468 C-26.58699097 39.81704407 -26.60455444 40.86924133 -26.62265015 41.95332336 C-26.78036499 44.3742218 -26.78036499 44.3742218 -27.78036499 45.3742218 C-29.44653614 45.41486012 -31.11424594 45.4169428 -32.78036499 45.3742218 C-32.89726572 40.87444296 -32.96785336 36.37505893 -33.03036499 31.8742218 C-33.06388062 30.6057843 -33.09739624 29.3373468 -33.13192749 28.0304718 C-33.22008808 19.56705493 -32.6499304 14.06376655 -27.13973999 7.38594055 C-26.34309937 6.73045227 -26.34309937 6.73045227 -25.53036499 6.0617218 C-25.00958374 5.61183899 -24.48880249 5.16195618 -23.95223999 4.69844055 C-16.14873283 -0.0594532 -8.92770793 -0.05101651 0 0 Z " fill="#141414" transform="translate(274.7803649902344,403.6257781982422)"/>
<path d="M0 0 C4.805625 -0.020625 9.61125 -0.04125 14.5625 -0.0625 C16.06498291 -0.071604 17.56746582 -0.08070801 19.11547852 -0.09008789 C20.91650024 -0.09383423 20.91650024 -0.09383423 22.75390625 -0.09765625 C23.97408447 -0.10289307 25.1942627 -0.10812988 26.45141602 -0.11352539 C33.09427774 0.09899134 37.80168044 0.62868583 43 5 C45.72517695 9.46877358 46.40899208 12.856047 46.375 18.0625 C46.38660156 19.84333984 46.38660156 19.84333984 46.3984375 21.66015625 C45.83206466 26.40769333 44.11431395 28.94591923 40.6875 32.1875 C35.43143218 35.73228992 30.6658908 36.24532713 24.4140625 36.1953125 C23.12967285 36.19031738 21.8452832 36.18532227 20.52197266 36.18017578 C18.90597168 36.16196777 17.2899707 36.14375977 15.625 36.125 C10.46875 36.08375 5.3125 36.0425 0 36 C0 24.12 0 12.24 0 0 Z " fill="#B2B2B2" transform="translate(621,460)"/>
<path d="M0 0 C3.34630155 3.02344808 4.23856726 6.32669407 5.4375 10.5625 C7.31336574 16.86960564 9.47098039 22.92280363 12 29 C12.92568925 31.30890308 13.84199777 33.6215842 14.75 35.9375 C15.17796875 37.01902344 15.6059375 38.10054688 16.046875 39.21484375 C17 42 17 42 17 45 C6.11 45 -4.78 45 -16 45 C-14.26488984 39.79466951 -12.54361311 34.65935517 -10.625 29.53125 C-9.98304688 27.80841797 -9.98304688 27.80841797 -9.328125 26.05078125 C-8.44270833 23.68359375 -7.55729167 21.31640625 -6.671875 18.94921875 C-4.33070635 12.66614266 -2.07127814 6.37735637 0 0 Z " fill="#999999" transform="translate(528,471)"/>
<path d="M0 0 C1.98 0 3.96 0 6 0 C6.33 0.66 6.66 1.32 7 2 C8.78962145 2.72084741 8.78962145 2.72084741 10.875 3.3125 C13.97060497 4.40343771 14.85472375 4.81254678 16.9375 7.5 C18 10 18 10 19 13 C19.66 13 20.32 13 21 13 C21 13.66 21 14.32 21 15 C21.66 15 22.32 15 23 15 C24.13011652 17.2058424 25.25415788 19.41445027 26.375 21.625 C26.69210937 22.24246094 27.00921875 22.85992188 27.3359375 23.49609375 C31.02681143 30.80094841 32.32247011 36.76649547 32.25 44.9375 C32.26160156 46.23977539 32.26160156 46.23977539 32.2734375 47.56835938 C32.25549056 53.50430855 31.69238783 58.61522434 29 64 C28.34 64 27.68 64 27 64 C27.0314209 63.0570105 27.0314209 63.0570105 27.06347656 62.0949707 C27.55875485 44.95928233 27.19018321 30.98244065 16 17 C11.78996866 12.66022963 7.58235177 8.47676757 2 6 C2 4.35 2 2.7 2 1 C1.34 0.67 0.68 0.34 0 0 Z " fill="#F2F2F2" transform="translate(307,521)"/>
<path d="M0 0 C14.19 0 28.38 0 43 0 C43 43.23 43 86.46 43 131 C49.93 131 56.86 131 64 131 C63.67 131.66 63.34 132.32 63 133 C62.34 133 61.68 133 61 133 C61 133.66 61 134.32 61 135 C60.34 135 59.68 135 59 135 C59 135.66 59 136.32 59 137 C58.34 137 57.68 137 57 137 C57 136.34 57 135.68 57 135 C56.02417969 135.0721875 55.04835938 135.144375 54.04296875 135.21875 C52.77066406 135.3115625 51.49835937 135.404375 50.1875 135.5 C48.92292969 135.5928125 47.65835938 135.685625 46.35546875 135.78125 C44.24021483 135.91914781 42.11974408 136 40 136 C39.855625 135.071875 39.71125 134.14375 39.5625 133.1875 C39.07899889 129.99274889 39.07899889 129.99274889 38 127 C38.66 127 39.32 127 40 127 C40 122.38 40 117.76 40 113 C40.33 113 40.66 113 41 113 C40.99777939 112.06579727 40.99555878 111.13159454 40.99327087 110.16908264 C40.97275203 101.24417342 40.95789235 92.31926916 40.94818783 83.39434147 C40.94303052 78.80902668 40.93606787 74.22373134 40.92456055 69.63842773 C40.87506601 49.40162893 40.88302965 29.21376605 42 9 C41.01 9 40.02 9 39 9 C39 6.36 39 3.72 39 1 C37.41638672 1.12568359 37.41638672 1.12568359 35.80078125 1.25390625 C23.78382493 2.11186806 12.0151572 1.77020238 0 1 C0 0.67 0 0.34 0 0 Z " fill="#7B7A79" transform="translate(691,431)"/>
<path d="M0 0 C1.7895358 0.71369965 3.5812801 1.42188233 5.375 2.125 C7.62892147 3.02517297 9.82946472 3.91473236 12 5 C12 5.66 12 6.32 12 7 C13.32 7.33 14.64 7.66 16 8 C16 8.66 16 9.32 16 10 C16.66 10 17.32 10 18 10 C18 10.66 18 11.32 18 12 C18.99 12.33 19.98 12.66 21 13 C20.505 15.475 20.505 15.475 20 18 C15.60555924 17.47140479 13.24556797 15.92076978 9.8125 13.1875 C4.76128914 9.37693742 -0.05630867 7.04884923 -6 5 C-6.75925781 4.64035156 -7.51851563 4.28070313 -8.30078125 3.91015625 C-11.82260075 2.72262522 -15.14281587 2.74384361 -18.8125 2.8125 C-19.52083984 2.81894531 -20.22917969 2.82539063 -20.95898438 2.83203125 C-25.7152211 2.90204025 -30.31199291 3.21866549 -35 4 C-34 1 -34 1 -32.0625 -0.0625 C-21.10791108 -3.41594559 -10.64141547 -4.82410834 0 0 Z " fill="#EDEDED" transform="translate(299,441)"/>
<path d="M0 0 C0.99 0.33 1.98 0.66 3 1 C2.01 2.485 2.01 2.485 1 4 C1.99 4.33 2.98 4.66 4 5 C3.59007812 5.47050781 3.18015625 5.94101562 2.7578125 6.42578125 C2.21898437 7.04839844 1.68015625 7.67101562 1.125 8.3125 C0.32449219 9.23482422 0.32449219 9.23482422 -0.4921875 10.17578125 C-3.61631266 13.95548708 -4.26539605 16.11072678 -4.37890625 20.9453125 C-4.41306641 22.10417969 -4.44722656 23.26304687 -4.48242188 24.45703125 C-4.52206055 26.27267578 -4.52206055 26.27267578 -4.5625 28.125 C-4.62214634 30.52354445 -4.68572667 32.92199545 -4.75390625 35.3203125 C-4.77783447 36.38523926 -4.8017627 37.45016602 -4.82641602 38.54736328 C-5 41 -5 41 -6 42 C-7.66617115 42.04063832 -9.33388095 42.042721 -11 42 C-11.11690073 37.50022116 -11.18748837 33.00083713 -11.25 28.5 C-11.28351563 27.2315625 -11.31703125 25.963125 -11.3515625 24.65625 C-11.44065589 16.10328479 -10.8751835 10.54188174 -5.18359375 3.87109375 C-4.60738281 3.39800781 -4.03117188 2.92492187 -3.4375 2.4375 C-2.85871094 1.94121094 -2.27992188 1.44492187 -1.68359375 0.93359375 C-1.12800781 0.62550781 -0.57242188 0.31742187 0 0 Z " fill="#0E0E0E" transform="translate(253,407)"/>
<path d="M0 0 C0.66 0.33 1.32 0.66 2 1 C1.96519531 1.7734375 1.93039062 2.546875 1.89453125 3.34375 C1.68376573 11.45320437 1.88838631 17.4994346 7.5 23.8125 C8.325 24.534375 9.15 25.25625 10 26 C10.39832031 26.474375 10.79664063 26.94875 11.20703125 27.4375 C13.85482533 29.74494582 16.97040345 30.88065536 20.1875 32.1875 C20.84169922 32.46013672 21.49589844 32.73277344 22.16992188 33.01367188 C23.77721092 33.68239798 25.38824962 34.34209925 27 35 C26.67 36.32 26.34 37.64 26 39 C17.04208431 38.60187041 8.96175436 33.51529953 2.43359375 27.58203125 C-2.08438456 22.59625138 -4.1330923 17.51067599 -4.0625 10.875 C-4.05347656 9.77929688 -4.04445313 8.68359375 -4.03515625 7.5546875 C-4.02355469 6.71164062 -4.01195312 5.86859375 -4 5 C-3.01 5 -2.02 5 -1 5 C-0.67 3.35 -0.34 1.7 0 0 Z " fill="#EDEDED" transform="translate(266,477)"/>
<path d="M0 0 C0.5775 0.185625 1.155 0.37125 1.75 0.5625 C4.22488597 1.04372783 5.60985476 0.67787733 8 0 C7.23970843 2.2748645 6.4673838 4.54435657 5.6875 6.8125 C5.47416016 7.45509766 5.26082031 8.09769531 5.04101562 8.75976562 C3.86193824 12.15621242 2.86593051 14.73919265 0 17 C-0.99 16.01 -1.98 15.02 -3 14 C-7.03384128 16.07143201 -8.92856799 17.96615872 -11 22 C-12.98 21.01 -14.96 20.02 -17 19 C-12.375 14.125 -12.375 14.125 -9 13 C-8.29605388 11.68596724 -7.63654342 10.3479743 -7 9 C-5 6.25 -5 6.25 -3 4 C-2.34 4 -1.68 4 -1 4 C-0.67 2.68 -0.34 1.36 0 0 Z " fill="#AAAAAA" transform="translate(473,537)"/>
<path d="M0 0 C3.43009459 4.00566602 5.92823432 8.20939928 8.4375 12.8125 C10.8798785 17.23720791 13.32285876 21.6246423 16.0625 25.875 C18 29 18 29 18 31 C15.69 31 13.38 31 11 31 C10 26.25 10 26.25 10 24 C10.66 23.67 11.32 23.34 12 23 C10.16715557 21.87483915 10.16715557 21.87483915 8 21 C7.01 21.33 6.02 21.66 5 22 C3.68095926 18.04287779 2.79584463 14.09291524 2 10 C2.66 10 3.32 10 4 10 C4 9.34 4 8.68 4 8 C1.69 7.67 -0.62 7.34 -3 7 C-2.25 2.25 -2.25 2.25 0 0 Z " fill="#969696" transform="translate(646,521)"/>
<path d="M0 0 C0.0501123 0.72179443 0.10022461 1.44358887 0.15185547 2.18725586 C0.38306799 5.43812489 0.62883319 8.68773066 0.875 11.9375 C0.95363281 13.07380859 1.03226562 14.21011719 1.11328125 15.38085938 C1.19707031 16.46044922 1.28085937 17.54003906 1.3671875 18.65234375 C1.47716064 20.15269165 1.47716064 20.15269165 1.58935547 21.68334961 C1.72486816 22.44784424 1.86038086 23.21233887 2 24 C2.66 24.33 3.32 24.66 4 25 C3.67 26.65 3.34 28.3 3 30 C1.68 30.33 0.36 30.66 -1 31 C-4.24894082 24.8545167 -4.45629125 19.56564328 -4.375 12.6875 C-4.38660156 11.68654297 -4.39820313 10.68558594 -4.41015625 9.65429688 C-4.40628906 8.69974609 -4.40242188 7.74519531 -4.3984375 6.76171875 C-4.39505371 5.89506592 -4.39166992 5.02841309 -4.38818359 4.13549805 C-4.26008301 3.43078369 -4.13198242 2.72606934 -4 2 C-1 0 -1 0 0 0 Z " fill="#EEEEEE" transform="translate(388,487)"/>
<path d="M0 0 C0.33 0 0.66 0 1 0 C1.02690844 2.62506802 1.04679404 5.24986173 1.0625 7.875 C1.07087891 8.62136719 1.07925781 9.36773438 1.08789062 10.13671875 C1.11328125 15.7734375 1.11328125 15.7734375 0 18 C0.45375 17.505 0.9075 17.01 1.375 16.5 C3 15 3 15 5 15 C4.1875 17.4375 4.1875 17.4375 3 20 C-0.30660126 21.10220042 -3.49798371 22 -7 22 C-7 21.01 -7 20.02 -7 19 C-9.31 19 -11.62 19 -14 19 C-14.33 18.01 -14.66 17.02 -15 16 C-11.7 16 -8.4 16 -5 16 C-5.350625 14.88625 -5.70125 13.7725 -6.0625 12.625 C-7 9 -7 9 -6 7 C-5.360625 6.9175 -4.72125 6.835 -4.0625 6.75 C-3.381875 6.5025 -2.70125 6.255 -2 6 C-0.6954344 3.00384054 -0.6954344 3.00384054 0 0 Z " fill="#CDCDCD" transform="translate(591,546)"/>
<path d="M0 0 C0.66 0.33 1.32 0.66 2 1 C2.33 6.61 2.66 12.22 3 18 C9.93 18 16.86 18 24 18 C23.67 18.66 23.34 19.32 23 20 C22.34 20 21.68 20 21 20 C21 20.66 21 21.32 21 22 C20.34 22 19.68 22 19 22 C19 22.66 19 23.32 19 24 C18.34 24 17.68 24 17 24 C17 23.34 17 22.68 17 22 C16.02417969 22.0721875 15.04835938 22.144375 14.04296875 22.21875 C12.77066406 22.3115625 11.49835937 22.404375 10.1875 22.5 C8.29064453 22.63921875 8.29064453 22.63921875 6.35546875 22.78125 C4.24021483 22.91914781 2.11974408 23 0 23 C-0.2165625 21.6078125 -0.2165625 21.6078125 -0.4375 20.1875 C-0.92100111 16.99274889 -0.92100111 16.99274889 -2 14 C-1.34 14 -0.68 14 0 14 C0 9.38 0 4.76 0 0 Z " fill="#9B9B9B" transform="translate(731,544)"/>
<path d="M0 0 C0.66 0 1.32 0 2 0 C2 0.99 2 1.98 2 3 C2.96679688 2.84402344 3.93359375 2.68804688 4.9296875 2.52734375 C12.52668757 1.39155463 19.3512738 0.66822179 27 2 C27 2.33 27 2.66 27 3 C18.64114342 3.68335178 10.3873388 4.11334242 2 4 C2.66 7.96 3.32 11.92 4 16 C3.34 16 2.68 16 2 16 C1.67 16.66 1.34 17.32 1 18 C0.67 15.03 0.34 12.06 0 9 C-0.53625 9.680625 -1.0725 10.36125 -1.625 11.0625 C-4.35076561 14.43384168 -7.16483178 17.72065543 -10 21 C-10.99 20.67 -11.98 20.34 -13 20 C-12.01 18.02 -11.02 16.04 -10 14 C-9.34 14 -8.68 14 -8 14 C-7.731875 13.443125 -7.46375 12.88625 -7.1875 12.3125 C-5.89746881 9.80033399 -4.47011874 7.41099474 -3 5 C-2.484375 4.071875 -1.96875 3.14375 -1.4375 2.1875 C-0.963125 1.465625 -0.48875 0.74375 0 0 Z " fill="#ADADAD" transform="translate(232,570)"/>
<path d="M0 0 C5.45347364 1.26824968 8.01285356 3.2557086 11 8 C11.81168129 11.91291639 11.34489939 15.16498042 9.8125 18.875 C7.72305703 21.32469175 6.05665662 22.09126425 3 23 C2.34 22.34 1.68 21.68 1 21 C2.32 20.67 3.64 20.34 5 20 C4.34 18.68 3.68 17.36 3 16 C3.33 15.67 3.66 15.34 4 15 C3.81254539 9.9555369 3.81254539 9.9555369 0.9375 6.0625 C0.298125 5.711875 -0.34125 5.36125 -1 5 C0.32 4.34 1.64 3.68 3 3 C1.68 2.34 0.36 1.68 -1 1 C-0.67 0.67 -0.34 0.34 0 0 Z " fill="#0C0C0C" transform="translate(770,594)"/>
<path d="M0 0 C0.21914063 0.64066406 0.43828125 1.28132812 0.6640625 1.94140625 C2.91955415 8.09358063 5.47127019 12.26541883 10 17 C8.35 17.66 6.7 18.32 5 19 C-0.06245367 13.91047439 -2.85142845 10.14666741 -4 3 C-4.67546875 3.02320313 -5.3509375 3.04640625 -6.046875 3.0703125 C-7.38492188 3.09738281 -7.38492188 3.09738281 -8.75 3.125 C-9.63171875 3.14820313 -10.5134375 3.17140625 -11.421875 3.1953125 C-14.1135858 2.99139502 -15.69904974 2.36551721 -18 1 C-11.95170514 0.10395632 -6.1105424 -0.11269443 0 0 Z " fill="#EFEFEF" transform="translate(263,569)"/>
<path d="M0 0 C2 2 2 2 2 10 C14.87 10.495 14.87 10.495 28 11 C28 11.66 28 12.32 28 13 C17.11 13 6.22 13 -5 13 C-2 4 -2 4 0 0 Z " fill="#BDBDBD" transform="translate(517,503)"/>
<path d="M0 0 C14.19 0 28.38 0 43 0 C43 10.89 43 21.78 43 33 C42.67 33 42.34 33 42 33 C42 25.08 42 17.16 42 9 C41.01 9 40.02 9 39 9 C39 6.36 39 3.72 39 1 C37.41638672 1.12568359 37.41638672 1.12568359 35.80078125 1.25390625 C23.78382493 2.11186806 12.0151572 1.77020238 0 1 C0 0.67 0 0.34 0 0 Z " fill="#5D5D5D" transform="translate(691,431)"/>
<path d="M0 0 C0.99 0.33 1.98 0.66 3 1 C2.113125 1.886875 1.22625 2.77375 0.3125 3.6875 C-4.04831999 8.70088925 -5.89034656 14.79239141 -8 21 C-8.33 20.01 -8.66 19.02 -9 18 C-15.04433574 19.35997554 -18.63494136 22.85651794 -23 27 C-23.33 26.34 -23.66 25.68 -24 25 C-20.8981306 21.0118822 -18.46231279 18.47906266 -14 16 C-13.67 15.34 -13.34 14.68 -13 14 C-12.34 14 -11.68 14 -11 14 C-10.67 12.35 -10.34 10.7 -10 9 C-8.576875 8.6596875 -8.576875 8.6596875 -7.125 8.3125 C-3.80676612 7.30916286 -3.80676612 7.30916286 -2.625 4.375 C-2.315625 3.199375 -2.315625 3.199375 -2 2 C-1.34 2 -0.68 2 0 2 C0 1.34 0 0.68 0 0 Z " fill="#B1B1B1" transform="translate(245,455)"/>
<path d="M0 0 C1.22589844 -0.00257813 2.45179688 -0.00515625 3.71484375 -0.0078125 C6.42104424 0.09955135 8.49359437 0.40160529 11.0625 1.125 C13.06213028 1.16345443 15.06301633 1.17044281 17.0625 1.125 C16.1875 5 16.1875 5 15.0625 6.125 C9.04433414 6.39608855 3.4746479 5.6938085 -2.4375 4.625 C-3.67113281 4.41037109 -3.67113281 4.41037109 -4.9296875 4.19140625 C-6.93334627 3.84193088 -8.93558298 3.48431844 -10.9375 3.125 C-8.86445365 -1.02109269 -4.07062149 -0.00854275 0 0 Z " fill="#EDEDED" transform="translate(428.9375,431.875)"/>
<path d="M0 0 C0.99 1.32 1.98 2.64 3 4 C3.99 3.01 4.98 2.02 6 1 C3.94186524 7.455059 1.56388086 13.73042899 -1 20 C-1.66787015 21.66618477 -2.33486267 23.33272241 -3 25 C-4.28771398 21.13685806 -3.97308076 17.62693361 -3.75 13.625 C-3.72292969 12.86960937 -3.69585937 12.11421875 -3.66796875 11.3359375 C-3.42075446 6.77443512 -2.80292022 3.78243536 0 0 Z " fill="#A1A1A1" transform="translate(500,472)"/>
<path d="M0 0 C4.72340426 2.68085106 4.72340426 2.68085106 6.21875 4.40625 C8.84468296 6.75576897 11.96269087 7.87752237 15.1875 9.1875 C16.16879883 9.59645508 16.16879883 9.59645508 17.16992188 10.01367188 C18.77721092 10.68239798 20.38824962 11.34209925 22 12 C21.67 13.32 21.34 14.64 21 16 C16.04664674 15.50466467 12.22737451 14.69014742 8 12 C6.96986723 10.35178756 5.96885372 8.68496298 5 7 C4.113125 6.484375 3.22625 5.96875 2.3125 5.4375 C1.549375 4.963125 0.78625 4.48875 0 4 C0 2.68 0 1.36 0 0 Z " fill="#F0F0F0" transform="translate(271,500)"/>
<path d="M0 0 C0.89203125 0.00902344 1.7840625 0.01804687 2.703125 0.02734375 C3.37859375 0.03894531 4.0540625 0.05054688 4.75 0.0625 C4.75 0.3925 4.75 0.7225 4.75 1.0625 C3.86248047 1.13597656 3.86248047 1.13597656 2.95703125 1.2109375 C-1.47309313 1.63010098 -5.16515722 2.1951433 -9.25 4.0625 C-10.57676508 4.42108516 -11.90835921 4.7643576 -13.25 5.0625 C-13.25 7.0425 -13.25 9.0225 -13.25 11.0625 C-16.25 12.0625 -16.25 12.0625 -18.3125 11.125 C-18.951875 10.774375 -19.59125 10.42375 -20.25 10.0625 C-20.91 10.0625 -21.57 10.0625 -22.25 10.0625 C-21.92 11.3825 -21.59 12.7025 -21.25 14.0625 C-22.24 14.5575 -22.24 14.5575 -23.25 15.0625 C-23.25 14.4025 -23.25 13.7425 -23.25 13.0625 C-24.24 13.3925 -25.23 13.7225 -26.25 14.0625 C-26.25 11.0625 -26.25 11.0625 -25.0703125 9.59765625 C-17.99679746 3.45315125 -9.40921445 -0.12380545 0 0 Z " fill="#A8A8A8" transform="translate(421.25,458.9375)"/>
<path d="M0 0 C-1.82221376 6.61242722 -4.05223604 12.80520671 -7 19 C-7.66 19 -8.32 19 -9 19 C-9.185625 18.13375 -9.185625 18.13375 -9.375 17.25 C-10.00648824 14.97664233 -10.88858191 13.0746471 -12 11 C-10.08926024 8.34619478 -8.06614288 5.78385183 -6 3.25 C-5.505 2.63640625 -5.01 2.0228125 -4.5 1.390625 C-3 0 -3 0 0 0 Z " fill="#BBBBBB" transform="translate(514,451)"/>
<path d="M0 0 C0.66 0.33 1.32 0.66 2 1 C1.835 1.598125 1.67 2.19625 1.5 2.8125 C0.8885876 5.11344336 0.8885876 5.11344336 1 8 C0.938125 8.99 0.87625 9.98 0.8125 11 C0.71200651 14.00821969 0.71200651 14.00821969 2.5 15.875 C2.995 16.24625 3.49 16.6175 4 17 C2.576875 16.690625 2.576875 16.690625 1.125 16.375 C-0.421875 16.189375 -0.421875 16.189375 -2 16 C-2.66 16.66 -3.32 17.32 -4 18 C-6.33991708 14.34387956 -6.37437949 11.26792624 -6 7 C-4.34860695 3.4613006 -3.28394771 2.18929847 0 0 Z " fill="#0E0E0E" transform="translate(356,595)"/>
<path d="M0 0 C3.81430239 0.51544627 5.42061082 1.20566172 8 4 C8.886875 4.515625 9.77375 5.03125 10.6875 5.5625 C11.450625 6.036875 12.21375 6.51125 13 7 C13 7.66 13 8.32 13 9 C15.475 9.99 15.475 9.99 18 11 C18 11.66 18 12.32 18 13 C17.34 13 16.68 13 16 13 C15.67 13.66 15.34 14.32 15 15 C12.99426318 13.71656721 10.99563881 12.4239631 9 11.125 C8.42765625 10.76019531 7.8553125 10.39539063 7.265625 10.01953125 C5.80818084 9.06525233 4.39962775 8.03722413 3 7 C3 6.34 3 5.68 3 5 C2.34 5 1.68 5 1 5 C0.67 3.35 0.34 1.7 0 0 Z " fill="#EEEEEE" transform="translate(453,520)"/>
<path d="M0 0 C3.0625 0.1875 3.0625 0.1875 5.0625 2.1875 C5.3125 5.1875 5.3125 5.1875 5.0625 8.1875 C3.0625 10.1875 3.0625 10.1875 0.0625 10.5 C-0.9275 10.396875 -1.9175 10.29375 -2.9375 10.1875 C-4.9375 7.1875 -4.9375 7.1875 -4.625 4.0625 C-3.71016322 0.23681893 -3.71016322 0.23681893 0 0 Z " fill="#101010" transform="translate(622.9375,402.8125)"/>
<path d="M0 0 C2.625 0.1875 2.625 0.1875 5.625 2.1875 C5.295 4.4975 4.965 6.8075 4.625 9.1875 C2.315 9.5175 0.005 9.8475 -2.375 10.1875 C-3.96038318 7.66953847 -4.4123656 6.50884414 -4.0625 3.5 C-3.09459213 0.24430991 -3.09459213 0.24430991 0 0 Z " fill="#151515" transform="translate(648.375,402.8125)"/>
<path d="M0 0 C5.43382754 1.32532379 9.38263613 3.77178841 13 8 C14.08743616 10.39044336 14.52984607 12.38803375 15 15 C13.02 15.99 13.02 15.99 11 17 C10.690625 16.21625 10.38125 15.4325 10.0625 14.625 C8.25993614 10.17160694 5.8219091 7.68695287 2.3125 4.4375 C1 3 1 3 0 0 Z " fill="#8F8F8F" transform="translate(287,470)"/>
<path d="M0 0 C3.92175676 4.27544304 3.47749608 8.22329307 3.37109375 13.78125 C2.86892289 18.13692148 1.59326939 20.51529425 -1 24 C-4 24 -4 24 -7 23 C-6.67 22.34 -6.34 21.68 -6 21 C-5.32650839 19.33607955 -4.6590841 17.66967972 -4 16 C-2.68 16 -1.36 16 0 16 C0.71908898 11.28597226 1.19955142 7.66492218 0 3 C0 2.01 0 1.02 0 0 Z " fill="#9E9E9E" transform="translate(304,560)"/>
<path d="M0 0 C2.97 0.495 2.97 0.495 6 1 C6 1.66 6 2.32 6 3 C6.66 3 7.32 3 8 3 C8 3.66 8 4.32 8 5 C8.99 5.33 9.98 5.66 11 6 C10.67 7.65 10.34 9.3 10 11 C4.96014269 10.55530671 2.62365012 8.28656638 -1 5 C-0.67 3.35 -0.34 1.7 0 0 Z " fill="#F5F5F5" transform="translate(309,448)"/>
<path d="M0 0 C2.3046875 -0.265625 2.3046875 -0.265625 5 0 C6.6953125 1.828125 6.6953125 1.828125 8.125 4.25 C9.96399395 7.2917954 11.82043367 10.1884884 14 13 C8.25 15 8.25 15 6 15 C6.020625 13.906875 6.04125 12.81375 6.0625 11.6875 C6.18544452 8.05615809 6.18544452 8.05615809 5 5 C3.02 5.66 1.04 6.32 -1 7 C-1.33 5.35 -1.66 3.7 -2 2 C-1.34 2 -0.68 2 0 2 C0 1.34 0 0.68 0 0 Z " fill="#8D8D8D" transform="translate(234,592)"/>
<path d="M0 0 C6.0546875 -0.1953125 6.0546875 -0.1953125 8 0 C10.58576708 2.58576708 10.49132533 4.43927733 11 8 C11.33 8.99 11.66 9.98 12 11 C7.17026437 10.56093312 3.36735013 8.43393615 0 5 C-0.4375 2.1875 -0.4375 2.1875 0 0 Z " fill="#EDEDED" transform="translate(454,440)"/>
<path d="M0 0 C-1.38188453 3.21043882 -2.92421903 5.04936365 -5.625 7.25 C-6.25664062 7.77078125 -6.88828125 8.2915625 -7.5390625 8.828125 C-8.02117187 9.21484375 -8.50328125 9.6015625 -9 10 C-9.33 9.34 -9.66 8.68 -10 8 C-12.32506659 7.60843772 -12.32506659 7.60843772 -15 7.5 C-17.75 7.34375 -17.75 7.34375 -20 7 C-20.33 6.34 -20.66 5.68 -21 5 C-20.04738281 4.80664062 -19.09476562 4.61328125 -18.11328125 4.4140625 C-16.23189453 4.02347656 -16.23189453 4.02347656 -14.3125 3.625 C-13.07113281 3.36976563 -11.82976562 3.11453125 -10.55078125 2.8515625 C-7.04656785 2.01116809 -3.57435046 0 0 0 Z " fill="#949494" transform="translate(450,559)"/>
<path d="M0 0 C3.3 0 6.6 0 10 0 C7.9505496 4.09890079 7.14570746 4.85126766 3.4375 7.125 C0.12890878 9.01471763 0.12890878 9.01471763 -2 12 C-2.66 12 -3.32 12 -4 12 C-4 12.66 -4 13.32 -4 14 C-4.66 14 -5.32 14 -6 14 C-5.19631101 8.77602153 -1.85808027 4.47227224 2 1 C1.34 0.67 0.68 0.34 0 0 Z " fill="#BCBCBC" transform="translate(676,562)"/>
<path d="M0 0 C1.62737868 2.90935454 2.34972896 5.31373639 2.6875 8.625 C2.77386719 9.40101563 2.86023438 10.17703125 2.94921875 10.9765625 C3 13 3 13 2 15 C1.01 15 0.02 15 -1 15 C-3.43425238 10.03006806 -4.34615998 6.65394631 -4 1 C-2 0 -2 0 0 0 Z " fill="#EBEBEB" transform="translate(574,512)"/>
<path d="M0 0 C0.98484375 0.01804687 1.9696875 0.03609375 2.984375 0.0546875 C4.10585938 0.08949219 4.10585938 0.08949219 5.25 0.125 C5.25 0.455 5.25 0.785 5.25 1.125 C3.39375 1.2796875 3.39375 1.2796875 1.5 1.4375 C-3.2429755 2.02408708 -5.42044838 3.79544838 -8.75 7.125 C-9.39767793 9.69561311 -9.39767793 9.69561311 -9.75 12.125 C-10.74 12.455 -11.73 12.785 -12.75 13.125 C-12.75 11.475 -12.75 9.825 -12.75 8.125 C-14.0481424 9.2740712 -14.0481424 9.2740712 -14.75 12.125 C-15.41 12.125 -16.07 12.125 -16.75 12.125 C-15.2968573 6.31242919 -12.95671638 4.08234636 -7.9453125 1.0234375 C-5.175704 -0.11003217 -2.98182484 -0.07099583 0 0 Z " fill="#C3C3C3" transform="translate(279.75,469.875)"/>
<path d="M0 0 C0.66 0 1.32 0 2 0 C2.53625 0.5775 3.0725 1.155 3.625 1.75 C6.73694119 4.69815481 10.14600691 6.2084954 14 8 C15.3351826 8.66295525 16.66905183 9.32858418 18 10 C15 11 15 11 12.625 9.9375 C9.27428968 8.74081774 8.15446363 9.58879259 5 11 C4.01 10.67 3.02 10.34 2 10 C1.34 6.7 0.68 3.4 0 0 Z " fill="#8B8B8B" transform="translate(248,605)"/>
<path d="M0 0 C0.33 0.99 0.66 1.98 1 3 C2.98 3 4.96 3 7 3 C7.33 2.34 7.66 1.68 8 1 C8.66 1 9.32 1 10 1 C9.1875 3.4375 9.1875 3.4375 8 6 C4.69339874 7.10220042 1.50201629 8 -2 8 C-2 7.01 -2 6.02 -2 5 C-4.31 5 -6.62 5 -9 5 C-9.33 4.01 -9.66 3.02 -10 2 C-6.7 2 -3.4 2 0 2 C0 1.34 0 0.68 0 0 Z " fill="#B5B5B5" transform="translate(586,560)"/>
<path d="M0 0 C1.32 0 2.64 0 4 0 C4.02705729 1.77074917 4.04642195 3.54161711 4.0625 5.3125 C4.07410156 6.29863281 4.08570313 7.28476562 4.09765625 8.30078125 C4 11 4 11 3 14 C2.18776206 16.91202344 1.7469477 19.74393667 1.4375 22.75 C1.35371094 23.54921875 1.26992188 24.3484375 1.18359375 25.171875 C1.12300781 25.77515625 1.06242188 26.3784375 1 27 C0.67 27 0.34 27 0 27 C0 18.09 0 9.18 0 0 Z " fill="#D1D1D1" transform="translate(622,517)"/>
<path d="M0 0 C0.66 0 1.32 0 2 0 C2 0.99 2 1.98 2 3 C2.96679688 2.84402344 3.93359375 2.68804688 4.9296875 2.52734375 C12.52668757 1.39155463 19.3512738 0.66822179 27 2 C27 2.33 27 2.66 27 3 C18.31320899 3.71961582 9.71700174 4.14368684 1 4 C1 4.66 1 5.32 1 6 C0.34 6 -0.32 6 -1 6 C-1.226875 6.5775 -1.45375 7.155 -1.6875 7.75 C-3.33038023 10.5663661 -5.39533227 12.08077114 -8 14 C-6.50051527 10.88568556 -4.79905536 7.9504508 -3 5 C-2.484375 4.071875 -1.96875 3.14375 -1.4375 2.1875 C-0.963125 1.465625 -0.48875 0.74375 0 0 Z " fill="#BBBBBB" transform="translate(232,570)"/>
<path d="M0 0 C0.99 0.33 1.98 0.66 3 1 C-0.11795394 6.43572501 -3.40754198 10.72794603 -8 15 C-8.99 14.67 -9.98 14.34 -11 14 C-8.00230781 8.75403867 -4.94048574 4.52891839 0 1 C0 0.67 0 0.34 0 0 Z " fill="#CECECE" transform="translate(489,562)"/>
<path d="M0 0 C0.66 0.33 1.32 0.66 2 1 C-0.77437587 5.85515778 -3.93930237 10.14233725 -8 14 C-9.65 12.68 -11.3 11.36 -13 10 C-12.22076172 9.41992188 -12.22076172 9.41992188 -11.42578125 8.828125 C-7.5657369 5.94557801 -3.73973042 3.03853097 0 0 Z " fill="#C3C3C3" transform="translate(469,545)"/>
<path d="M0 0 C0.61875 0.66 1.2375 1.32 1.875 2 C5.21977647 5.36399932 8.9619388 8.21646891 12.6953125 11.1328125 C14.59599046 12.6726838 16.31772722 14.22976525 18 16 C15.36 16 12.72 16 10 16 C10.33 15.01 10.66 14.02 11 13 C9.68 12.67 8.36 12.34 7 12 C6.67 10.68 6.34 9.36 6 8 C4.68 8.33 3.36 8.66 2 9 C2.04125 8.2575 2.0825 7.515 2.125 6.75 C1.99601866 3.91241048 1.42948778 2.41226062 0 0 Z " fill="#909090" transform="translate(245,519)"/>
<path d="M0 0 C2.27196601 2.27196601 2.56160312 3.50508468 3.375 6.5625 C4.80789221 11.61068946 6.74820764 16.26780692 9 21 C8.34 21 7.68 21 7 21 C7 20.34 7 19.68 7 19 C5.68 19.33 4.36 19.66 3 20 C1.9375 18.25 1.9375 18.25 1 16 C1.2475 15.0409375 1.2475 15.0409375 1.5 14.0625 C2.2308719 11.92361642 2.2308719 11.92361642 1.0625 9.6875 C-0.25814394 6.34704768 -0.13959269 3.55961371 0 0 Z " fill="#939393" transform="translate(361,516)"/>
<path d="M0 0 C6.86701381 3.16939099 10.64468813 6.28937627 14 13 C13.01 14.485 13.01 14.485 12 16 C11.01 15.67 10.02 15.34 9 15 C9 12.69 9 10.38 9 8 C4.38492226 6.95785309 4.38492226 6.95785309 0 8 C0 5.36 0 2.72 0 0 Z " fill="#8D8D8D" transform="translate(440,464)"/>
<path d="M0 0 C1.37140038 0.01987537 2.7426453 0.05555764 4.11328125 0.10546875 C4.81517578 0.11900391 5.51707031 0.13253906 6.24023438 0.14648438 C7.96907954 0.18176693 9.6975289 0.23557292 11.42578125 0.29296875 C11.09578125 0.95296875 10.76578125 1.61296875 10.42578125 2.29296875 C9.76578125 2.29296875 9.10578125 2.29296875 8.42578125 2.29296875 C8.42578125 2.95296875 8.42578125 3.61296875 8.42578125 4.29296875 C7.76578125 4.29296875 7.10578125 4.29296875 6.42578125 4.29296875 C6.42578125 4.95296875 6.42578125 5.61296875 6.42578125 6.29296875 C5.76578125 6.29296875 5.10578125 6.29296875 4.42578125 6.29296875 C4.42578125 5.63296875 4.42578125 4.97296875 4.42578125 4.29296875 C0.79578125 3.96296875 -2.83421875 3.63296875 -6.57421875 3.29296875 C-3.57421875 0.29296875 -3.57421875 0.29296875 0 0 Z " fill="#A9A9A9" transform="translate(743.57421875,561.70703125)"/>
<path d="M0 0 C3.96 0 7.92 0 12 0 C11.01 0.495 11.01 0.495 10 1 C10 1.66 10 2.32 10 3 C9.071875 3.433125 8.14375 3.86625 7.1875 4.3125 C4.48254066 5.7445373 3.0458389 6.85186916 1 9 C0.34 9 -0.32 9 -1 9 C-1.226875 9.556875 -1.45375 10.11375 -1.6875 10.6875 C-3.35896766 13.63246684 -5.55276352 15.68156544 -8 18 C-8.33 17.01 -8.66 16.02 -9 15 C-8.13375 14.319375 -7.2675 13.63875 -6.375 12.9375 C-3.29672906 10.39172617 -0.80393137 7.55324847 1.703125 4.453125 C3 3 3 3 5 2 C3.35 1.67 1.7 1.34 0 1 C0 0.67 0 0.34 0 0 Z " fill="#BBBBBB" transform="translate(607,562)"/>
<path d="M0 0 C1.66666667 0 3.33333333 0 5 0 C5.04254356 1.99954746 5.04080783 4.00041636 5 6 C4.67 6.33 4.34 6.66 4 7 C4.66 7.33 5.32 7.66 6 8 C6 9.65 6 11.3 6 13 C5.01 13 4.02 13 3 13 C-1.06153846 6.84615385 -1.06153846 6.84615385 -0.75 2.5625 C-0.5025 1.716875 -0.255 0.87125 0 0 Z " fill="#F2F2F2" transform="translate(682,530)"/>
<path d="M0 0 C2 3 2 3 2 7 C2.66 7.33 3.32 7.66 4 8 C3.67 9.65 3.34 11.3 3 13 C1.68 13.33 0.36 13.66 -1 14 C-3.09350689 10.5980513 -3.17942163 7.94727588 -3 4 C-2.34 4 -1.68 4 -1 4 C-0.67 2.68 -0.34 1.36 0 0 Z " fill="#F4F4F4" transform="translate(388,504)"/>
<path d="M0 0 C0.74958984 0.00902344 1.49917969 0.01804687 2.27148438 0.02734375 C4.11862654 0.05087422 5.96560412 0.08674439 7.8125 0.125 C7.8125 1.115 7.8125 2.105 7.8125 3.125 C4.42371636 4.14571796 1.28093119 4.2906231 -2.25 4.3125 C-3.81427734 4.33376953 -3.81427734 4.33376953 -5.41015625 4.35546875 C-8.1875 4.125 -8.1875 4.125 -11.1875 2.125 C-7.39586973 -0.40275351 -4.37875969 -0.09943035 0 0 Z " fill="#E3E3E3" transform="translate(286.1875,586.875)"/>
<path d="M0 0 C1.32 0 2.64 0 4 0 C3.34 1.32 2.68 2.64 2 4 C1.34 4 0.68 4 0 4 C0 4.66 0 5.32 0 6 C-0.66 6 -1.32 6 -2 6 C-2 6.66 -2 7.32 -2 8 C-2.99 8 -3.98 8 -5 8 C-5.309375 8.61875 -5.61875 9.2375 -5.9375 9.875 C-6.625 11.25 -7.3125 12.625 -8 14 C-8.66 14 -9.32 14 -10 14 C-10 14.66 -10 15.32 -10 16 C-11.65 16.66 -13.3 17.32 -15 18 C-14.60167969 17.55269531 -14.20335937 17.10539063 -13.79296875 16.64453125 C-11.42783095 13.94562705 -9.24633818 11.42370167 -7.4375 8.3125 C-5.70443735 5.52452965 -3.59249644 3.97848413 -1 2 C-0.67 1.34 -0.34 0.68 0 0 Z " fill="#C7C7C7" transform="translate(744,568)"/>
<path d="M0 0 C0.66 0.33 1.32 0.66 2 1 C2.1875 3.875 2.1875 3.875 2 7 C-1.4352048 9.29013653 -2.985331 9.17842973 -7 9 C-6.875 6.75 -6.875 6.75 -6 4 C-2.9375 1.6875 -2.9375 1.6875 0 0 Z " fill="#ADADAD" transform="translate(317,606)"/>
<path d="M0 0 C2.93764676 0.50649082 5.43182441 1.49451776 8 3 C8.33 3.66 8.66 4.32 9 5 C8.45730469 5.26554687 7.91460937 5.53109375 7.35546875 5.8046875 C6.64003906 6.15789062 5.92460937 6.51109375 5.1875 6.875 C4.47980469 7.22304688 3.77210938 7.57109375 3.04296875 7.9296875 C0.78753582 9.0656486 0.78753582 9.0656486 -2 11 C-2.33 10.01 -2.66 9.02 -3 8 C-2.34 8 -1.68 8 -1 8 C-1.020625 6.865625 -1.04125 5.73125 -1.0625 4.5625 C-1 1 -1 1 0 0 Z " fill="#D6D6D6" transform="translate(249,401)"/>
<path d="M0 0 C0.99 0.33 1.98 0.66 3 1 C2.4225 1.86625 1.845 2.7325 1.25 3.625 C-2.01877769 9.26364152 -3.36809918 15.74148674 -5 22 C-7.0390625 18.234375 -7.0390625 18.234375 -6.6875 16.125 C-6.460625 15.42375 -6.23375 14.7225 -6 14 C-5.855625 13.01 -5.71125 12.02 -5.5625 11 C-5.05140103 8.27413881 -4.37350591 6.38074357 -3 4 C-2.34 4 -1.68 4 -1 4 C-0.67 2.68 -0.34 1.36 0 0 Z " fill="#B0B0B0" transform="translate(367,464)"/>
<path d="M0 0 C-0.47656412 1.79236067 -0.95633498 3.58386897 -1.4375 5.375 C-1.70433594 6.37273438 -1.97117187 7.37046875 -2.24609375 8.3984375 C-3 11 -3 11 -4 13 C-4.99 13 -5.98 13 -7 13 C-7.875 10.4375 -7.875 10.4375 -8 7 C-3.71057884 0 -3.71057884 0 0 0 Z " fill="#ADADAD" transform="translate(488,518)"/>
<path d="M0 0 C0.85050266 3.07985055 1.21360705 4.96598236 0 8 C-0.99 8.66 -1.98 9.32 -3 10 C-3.22107787 12.7885289 -3.28107535 15.34653181 -3.1875 18.125 C-3.17396484 18.87910156 -3.16042969 19.63320313 -3.14648438 20.41015625 C-3.11109985 22.27374127 -3.05729167 24.13695978 -3 26 C-3.66 26.33 -4.32 26.66 -5 27 C-5.14660682 23.81299327 -5.23449317 20.62686499 -5.3125 17.4375 C-5.35439453 16.54224609 -5.39628906 15.64699219 -5.43945312 14.72460938 C-5.5601686 8.13354434 -4.33860399 4.98085403 0 0 Z " fill="#C7C7C7" transform="translate(253,415)"/>
<path d="M0 0 C0.66 0 1.32 0 2 0 C2.3403125 1.918125 2.3403125 1.918125 2.6875 3.875 C3.16100084 6.06932132 3.16100084 6.06932132 4 8 C6.48313064 9.59688639 6.48313064 9.59688639 9 10 C6.01697727 10.77337626 3.04311974 11.50652112 0 12 C-1.85694854 10.14305146 -1.63064615 7.49626252 -2.01171875 5.0078125 C-2 3 -2 3 0 0 Z " fill="#E5E5E5" transform="translate(642,404)"/>
<path d="M0 0 C0.33 0.99 0.66 1.98 1 3 C0.34 3 -0.32 3 -1 3 C-1.33 3.99 -1.66 4.98 -2 6 C-3.2065625 6.4640625 -3.2065625 6.4640625 -4.4375 6.9375 C-7.14157493 7.76608159 -7.14157493 7.76608159 -8.3125 10.125 C-8.539375 10.74375 -8.76625 11.3625 -9 12 C-9.66 11.67 -10.32 11.34 -11 11 C-7.33333333 7.33333333 -3.66666667 3.66666667 0 0 Z M-12 12 C-11.67 12.66 -11.34 13.32 -11 14 C-12.65 15.98 -14.3 17.96 -16 20 C-16.33 19.01 -16.66 18.02 -17 17 C-15.35 15.35 -13.7 13.7 -12 12 Z " fill="#C7C7C7" transform="translate(233,466)"/>
<path d="M0 0 C5.28 0 10.56 0 16 0 C15.67 0.99 15.34 1.98 15 3 C10.38 3 5.76 3 1 3 C0.67 2.01 0.34 1.02 0 0 Z " fill="#FBFBFB" transform="translate(728,404)"/>
<path d="M0 0 C2.0625 0.4375 2.0625 0.4375 4 1 C4 1.66 4 2.32 4 3 C-0.38461538 6 -0.38461538 6 -3 6 C-3 5.34 -3 4.68 -3 4 C-7.455 4.495 -7.455 4.495 -12 5 C-11.67 4.34 -11.34 3.68 -11 3 C-8.75 2.40234375 -8.75 2.40234375 -6 1.9375 C-2.69940294 1.5954649 -2.69940294 1.5954649 0 0 Z " fill="#C7C7C7" transform="translate(297,583)"/>
<path d="M0 0 C2.79872437 2.52788007 4.45773019 4.20411134 5 8 C2.69 8 0.38 8 -2 8 C-3 3.25 -3 3.25 -3 1 C-2.01 0.67 -1.02 0.34 0 0 Z " fill="#9A9A9A" transform="translate(659,544)"/>
<path d="M0 0 C-1.20842856 4.43090471 -2.51668565 6.98112756 -6 10 C-6.66 9.67 -7.32 9.34 -8 9 C-7.67 7.02 -7.34 5.04 -7 3 C-7.66 2.67 -8.32 2.34 -9 2 C-2.25 0 -2.25 0 0 0 Z " fill="#B3B3B3" transform="translate(325,485)"/>
<path d="M0 0 C0.99 0.66 1.98 1.32 3 2 C3.1875 5.625 3.1875 5.625 3 9 C-1.75 8.125 -1.75 8.125 -4 7 C-4 6.01 -4 5.02 -4 4 C-3.34 4 -2.68 4 -2 4 C-2 3.01 -2 2.02 -2 1 C-1.34 0.67 -0.68 0.34 0 0 Z " fill="#F1F1F1" transform="translate(405,528)"/>
<path d="M0 0 C0.35811768 0.4844458 0.71623535 0.9688916 1.08520508 1.46801758 C3.87521492 3.70023889 6.09809763 3.43445628 9.63671875 3.51171875 C10.93544922 3.54716797 12.23417969 3.58261719 13.57226562 3.61914062 C14.94400517 3.6422405 16.3157501 3.6650229 17.6875 3.6875 C19.07099607 3.72067542 20.45446129 3.75516531 21.83789062 3.79101562 C25.22517883 3.87363241 28.61220357 3.94274058 32 4 C32 4.33 32 4.66 32 5 C21.11 5 10.22 5 -1 5 C-0.67 3.35 -0.34 1.7 0 0 Z " fill="#939393" transform="translate(513,511)"/>
<path d="M0 0 C0.66 0.33 1.32 0.66 2 1 C1.3503125 1.5878125 1.3503125 1.5878125 0.6875 2.1875 C-1.11875592 4.00171326 -1.11875592 4.00171326 -2.5 6.5 C-3.85133242 8.7522207 -4.94942901 10.3766313 -7 12 C-7.99 12 -8.98 12 -10 12 C-10.66 13.32 -11.32 14.64 -12 16 C-12 12.47967572 -11.29648649 11.5614657 -9 9 C-8.34 9 -7.68 9 -7 9 C-6.34 7.68 -5.68 6.36 -5 5 C-4.34 5 -3.68 5 -3 5 C-2.690625 4.360625 -2.38125 3.72125 -2.0625 3.0625 C-1 1 -1 1 0 0 Z " fill="#C7C7C7" transform="translate(448,480)"/>
<path d="M0 0 C3.125 -0.1875 3.125 -0.1875 6 0 C6 0.66 6 1.32 6 2 C5.01 2 4.02 2 3 2 C3.33 3.32 3.66 4.64 4 6 C2.68 6 1.36 6 0 6 C0.66 7.32 1.32 8.64 2 10 C1.01 9.67 0.02 9.34 -1 9 C-1.625 6.1875 -1.625 6.1875 -2 3 C-1.34 2.01 -0.68 1.02 0 0 Z " fill="#212121" transform="translate(620,403)"/>
<path d="M0 0 C0 1.32 0 2.64 0 4 C0.66 4.33 1.32 4.66 2 5 C1.67 5.66 1.34 6.32 1 7 C-2.82097239 6.46930939 -5.06171403 5.50298434 -8 3 C-5.53387212 -0.1151089 -3.89156016 -0.31553191 0 0 Z " fill="#E8E8E8" transform="translate(298,513)"/>
<path d="M0 0 C0.99 0 1.98 0 3 0 C3.33 1.32 3.66 2.64 4 4 C3.175 4.185625 2.35 4.37125 1.5 4.5625 C-3.18983252 6.48868121 -6.35541683 9.54042105 -10 13 C-10.33 12.34 -10.66 11.68 -11 11 C-7.8981306 7.0118822 -5.46231279 4.47906266 -1 2 C-0.67 1.34 -0.34 0.68 0 0 Z " fill="#B4B4B4" transform="translate(232,469)"/>
<path d="M0 0 C1.21236328 0.01353516 1.21236328 0.01353516 2.44921875 0.02734375 C3.37154297 0.04474609 3.37154297 0.04474609 4.3125 0.0625 C4.6425 0.7225 4.9725 1.3825 5.3125 2.0625 C4.9825 2.7225 4.6525 3.3825 4.3125 4.0625 C0.0225 3.7325 -4.2675 3.4025 -8.6875 3.0625 C-6.88341097 -0.54567807 -3.60175697 -0.05219938 0 0 Z " fill="#F2F2F2" transform="translate(426.6875,431.9375)"/>
<path d="M0 0 C0 3 0 3 -2.1875 5.48046875 C-3.115625 6.37378906 -4.04375 7.26710938 -5 8.1875 C-5.928125 9.08855469 -6.85625 9.98960937 -7.8125 10.91796875 C-8.534375 11.60503906 -9.25625 12.29210937 -10 13 C-10.99 12.67 -11.98 12.34 -13 12 C-11.6875 10 -11.6875 10 -10 8 C-9.01 8 -8.02 8 -7 8 C-6.773125 7.4225 -6.54625 6.845 -6.3125 6.25 C-4.66961977 3.4336339 -2.60466773 1.91922886 0 0 Z " fill="#D8D8D8" transform="translate(599,579)"/>
<path d="M0 0 C-0.4793247 4.31392226 -1.7457985 6.16569547 -5 9 C-6.32 8.34 -7.64 7.68 -9 7 C-7.35186182 3.70372364 -3.8260844 0 0 0 Z " fill="#AAAAAA" transform="translate(306,576)"/>
<path d="M0 0 C3.91211733 1.15585285 6.8745041 2.35534962 10 5 C6.21812119 6.83691257 4.05431692 7.15837626 0 6 C0 4.02 0 2.04 0 0 Z " fill="#929292" transform="translate(265,536)"/>
<path d="M0 0 C0.89203125 0.00902344 1.7840625 0.01804687 2.703125 0.02734375 C3.37859375 0.03894531 4.0540625 0.05054688 4.75 0.0625 C4.75 0.3925 4.75 0.7225 4.75 1.0625 C3.86248047 1.13597656 3.86248047 1.13597656 2.95703125 1.2109375 C-1.47309313 1.63010098 -5.16515722 2.1951433 -9.25 4.0625 C-9.930625 4.2275 -10.61125 4.3925 -11.3125 4.5625 C-13.47848064 5.12146274 -15.28315788 6.00883458 -17.25 7.0625 C-17.91 6.4025 -18.57 5.7425 -19.25 5.0625 C-17.66800369 4.41339846 -16.08434276 3.76835306 -14.5 3.125 C-13.61828125 2.76535156 -12.7365625 2.40570313 -11.828125 2.03515625 C-7.71703392 0.4841537 -4.40438236 -0.0579524 0 0 Z " fill="#868686" transform="translate(421.25,458.9375)"/>
<path d="M0 0 C3.0916909 2.52956528 3.90931332 5.22454612 5 9 C6.65 9 8.3 9 10 9 C9.01 9.33 8.02 9.66 7 10 C6.67 10.66 6.34 11.32 6 12 C5.01 11.67 4.02 11.34 3 11 C3 10.34 3 9.68 3 9 C1.68 8.34 0.36 7.68 -1 7 C-0.67 4.69 -0.34 2.38 0 0 Z " fill="#999999" transform="translate(665,553)"/>
<path d="M0 0 C2.08163365 3.12245047 3.32575613 6.07034881 4.6875 9.5625 C5.14511719 10.71878906 5.60273437 11.87507812 6.07421875 13.06640625 C7 16 7 16 6 18 C5.566875 17.505 5.13375 17.01 4.6875 16.5 C3.00259517 14.66781808 3.00259517 14.66781808 0 15 C0 14.34 0 13.68 0 13 C0.99 13 1.98 13 3 13 C2.03223902 9.20452079 2.03223902 9.20452079 0 6 C-0.04080783 4.00041636 -0.04254356 1.99954746 0 0 Z " fill="#8C8C8C" transform="translate(553,536)"/>
<path d="M0 0 C0.99 0 1.98 0 3 0 C4.00109515 3.31070838 4.10356134 6.30084769 4.0625 9.75 C4.05347656 10.73484375 4.04445313 11.7196875 4.03515625 12.734375 C4.02355469 13.48203125 4.01195312 14.2296875 4 15 C3.67 15 3.34 15 3 15 C3 12.69 3 10.38 3 8 C2.01 8.33 1.02 8.66 0 9 C0 6.03 0 3.06 0 0 Z " fill="#D1D1D1" transform="translate(622,464)"/>
<path d="M0 0 C0.66 1.65 1.32 3.3 2 5 C0.37399059 4.9129995 -1.25089678 4.8048219 -2.875 4.6875 C-3.77992188 4.62949219 -4.68484375 4.57148438 -5.6171875 4.51171875 C-8 4 -8 4 -10 1 C-6.61981469 -0.04005702 -3.5219721 -0.08004482 0 0 Z " fill="#F6F6F6" transform="translate(288,439)"/>
<path d="M0 0 C2.97 1.65 5.94 3.3 9 5 C9 5.66 9 6.32 9 7 C6.36 7 3.72 7 1 7 C0 4 0 4 0 0 Z " fill="#959595" transform="translate(384,552)"/>
<path d="M0 0 C1.32 0.66 2.64 1.32 4 2 C3.34 3.65 2.68 5.3 2 7 C1.34 7 0.68 7 0 7 C-0.103125 7.639375 -0.20625 8.27875 -0.3125 8.9375 C-0.539375 9.618125 -0.76625 10.29875 -1 11 C-1.99 11.33 -2.98 11.66 -4 12 C-2.66666667 8 -1.33333333 4 0 0 Z " fill="#B0B0B0" transform="translate(500,547)"/>
<path d="M0 0 C0.226875 0.61875 0.45375 1.2375 0.6875 1.875 C1.8440732 4.23244106 1.8440732 4.23244106 4.5 4.9375 C7 6 7 6 8.3125 8.625 C8.6528125 9.800625 8.6528125 9.800625 9 11 C4.01987239 9.49087042 0.75740058 6.44338151 -3 3 C-2.01 2.67 -1.02 2.34 0 2 C0 1.34 0 0.68 0 0 Z " fill="#E0E0E0" transform="translate(270,500)"/>
<path d="M0 0 C-1.57725347 0.70133599 -3.16211333 1.385583 -4.75 2.0625 C-5.63171875 2.44535156 -6.5134375 2.82820313 -7.421875 3.22265625 C-10.15256309 4.04600008 -11.36901347 3.9773992 -14 3 C-12.66264479 0.32528957 -11.47131745 0.2159072 -8.6875 -0.75 C-7.51767578 -1.17539062 -7.51767578 -1.17539062 -6.32421875 -1.609375 C-3.5098502 -2.08237812 -2.37131576 -1.49767311 0 0 Z " fill="#EDEDED" transform="translate(414,435)"/>
<path d="M0 0 C1.67542976 0.28604898 3.34385343 0.61781233 5 1 C5 4 5 4 3.6875 5.625 C2 7 2 7 -1 8 C-1.66 7.34 -2.32 6.68 -3 6 C-1.68 5.67 -0.36 5.34 1 5 C0.34 3.68 -0.32 2.36 -1 1 C-0.67 0.67 -0.34 0.34 0 0 Z " fill="#111111" transform="translate(774,609)"/>
<path d="M0 0 C0.33 0 0.66 0 1 0 C1 4.62 1 9.24 1 14 C0.01 14 -0.98 14 -2 14 C-3.81975482 8.87160006 -1.8599099 4.82315618 0 0 Z " fill="#B3B3B3" transform="translate(591,546)"/>
<path d="M0 0 C2.64 0 5.28 0 8 0 C7.01 1.485 7.01 1.485 6 3 C5.01 3 4.02 3 3 3 C0.84720127 4.8850244 0.84720127 4.8850244 0 7.5625 C-1 10 -1 10 -3 11 C-2.32829194 7.1936543 -1.27253436 3.64793184 0 0 Z " fill="#9D9D9D" transform="translate(504,536)"/>
<path d="M0 0 C0.33 0 0.66 0 1 0 C1 6.93 1 13.86 1 21 C0.01 21.33 -0.98 21.66 -2 22 C-2.125 16.25 -2.125 16.25 -1 14 C-0.76970044 11.62876754 -0.58880058 9.25258057 -0.4375 6.875 C-0.35371094 5.59367187 -0.26992188 4.31234375 -0.18359375 2.9921875 C-0.09271484 1.51105469 -0.09271484 1.51105469 0 0 Z " fill="#9A9A9A" transform="translate(690,410)"/>
<path d="M0 0 C3.94139078 1.66751148 6.7892812 4.22710649 10 7 C9.67 7.99 9.34 8.98 9 10 C8.34 9.34 7.68 8.68 7 8 C4.39719432 8.32041397 4.39719432 8.32041397 2 9 C2.226875 8.4225 2.45375 7.845 2.6875 7.25 C3.26793386 4.88428744 3.26793386 4.88428744 1.5625 2.8125 C0.7890625 1.9153125 0.7890625 1.9153125 0 1 C0 0.67 0 0.34 0 0 Z " fill="#8B8B8B" transform="translate(294,550)"/>
<path d="M0 0 C0.33 1.98 0.66 3.96 1 6 C-0.65 6.33 -2.3 6.66 -4 7 C-4.66 5.35 -5.32 3.7 -6 2 C-2.25 0 -2.25 0 0 0 Z " fill="#F2F2F2" transform="translate(670,433)"/>
<path d="M0 0 C2.0625 0.4375 2.0625 0.4375 4 1 C2.93283928 2.20205464 1.84561663 3.38632333 0.75 4.5625 C-0.15492188 5.55443359 -0.15492188 5.55443359 -1.078125 6.56640625 C-3 8 -3 8 -5.234375 7.71484375 C-5.81703125 7.47894531 -6.3996875 7.24304688 -7 7 C-6.38125 6.7525 -5.7625 6.505 -5.125 6.25 C-2.62985717 4.78226892 -2.09872287 3.62003145 -1 1 C-0.67 0.67 -0.34 0.34 0 0 Z " fill="#D1D1D1" transform="translate(668,576)"/>
<path d="M0 0 C0.33 0.99 0.66 1.98 1 3 C0.67 3.66 0.34 4.32 0 5 C-2.97 5 -5.94 5 -9 5 C-9.33 4.01 -9.66 3.02 -10 2 C-6.7 2 -3.4 2 0 2 C0 1.34 0 0.68 0 0 Z " fill="#9D9D9D" transform="translate(586,560)"/>
<path d="M0 0 C-1.38188453 3.21043882 -2.92421903 5.04936365 -5.625 7.25 C-6.57246094 8.03117188 -6.57246094 8.03117188 -7.5390625 8.828125 C-8.02117187 9.21484375 -8.50328125 9.6015625 -9 10 C-9 8 -9 6 -9 4 C-2.25 0 -2.25 0 0 0 Z " fill="#ABABAB" transform="translate(450,559)"/>
<path d="M0 0 C2.96865509 2.54456151 4.3619751 5.48994665 6 9 C5.071875 8.649375 4.14375 8.29875 3.1875 7.9375 C0.0197047 6.67617372 0.0197047 6.67617372 -3 8 C-2.5359375 7.13375 -2.5359375 7.13375 -2.0625 6.25 C-1.07416636 4.15705816 -0.4831387 2.25464725 0 0 Z " fill="#919191" transform="translate(654,535)"/>
<path d="M0 0 C1.65 0 3.3 0 5 0 C5 1.32 5 2.64 5 4 C1.78571429 7 1.78571429 7 -1 7 C-1.33 5.35 -1.66 3.7 -2 2 C-1.34 2 -0.68 2 0 2 C0 1.34 0 0.68 0 0 Z " fill="#959595" transform="translate(234,592)"/>
<path d="M0 0 C5.75 1.75 5.75 1.75 8 4 C4.59437148 4.77842938 1.49234244 5.09978121 -2 5 C-1 2 -1 2 0 0 Z " fill="#8E8E8E" transform="translate(286,546)"/>
<path d="M0 0 C0.33 0.99 0.66 1.98 1 3 C1.66 3.33 2.32 3.66 3 4 C2.01 6.31 1.02 8.62 0 11 C-0.99 10.67 -1.98 10.34 -3 10 C-3 9.34 -3 8.68 -3 8 C-2.34 8 -1.68 8 -1 8 C-1.66 5.69 -2.32 3.38 -3 1 C-2.01 1.33 -1.02 1.66 0 2 C0 1.34 0 0.68 0 0 Z " fill="#A1A1A1" transform="translate(476,540)"/>
<path d="M0 0 C0.66 0.99 1.32 1.98 2 3 C-0.16183103 5.37801414 -2.14976149 6.57488074 -5 8 C-6.68889872 9.3050581 -8.3603279 10.63360658 -10 12 C-8.65263662 9.06559801 -7.11433035 6.74926573 -5 4.3125 C-4.484375 3.71050781 -3.96875 3.10851562 -3.4375 2.48828125 C-2 1 -2 1 0 0 Z " fill="#CBCBCB" transform="translate(362,468)"/>
<path d="M0 0 C0.99 0.33 1.98 0.66 3 1 C2.67 2.65 2.34 4.3 2 6 C1.01 5.67 0.02 5.34 -1 5 C-1.33 5.99 -1.66 6.98 -2 8 C-2.66 7.67 -3.32 7.34 -4 7 C-2.92598892 4.08482708 -2.22189824 2.22189824 0 0 Z " fill="#C6C6C6" transform="translate(322,602)"/>
<path d="M0 0 C0.99 0.33 1.98 0.66 3 1 C0.69 3.64 -1.62 6.28 -4 9 C-5.32 8.67 -6.64 8.34 -8 8 C-6.50260417 6.76302083 -5.00520833 5.52604167 -3.5078125 4.2890625 C-2.28948839 3.24749008 -1.13339903 2.13339903 0 1 C0 0.67 0 0.34 0 0 Z " fill="#BBBBBB" transform="translate(489,562)"/>
<path d="M0 0 C3.3 0 6.6 0 10 0 C10 0.66 10 1.32 10 2 C8.02 2 6.04 2 4 2 C3.67 2.99 3.34 3.98 3 5 C1.35 5.33 -0.3 5.66 -2 6 C-0.68 4.35 0.64 2.7 2 1 C1.34 0.67 0.68 0.34 0 0 Z " fill="#ABABAB" transform="translate(676,562)"/>
<path d="M0 0 C5.75 3.625 5.75 3.625 8 7 C5.69 7 3.38 7 1 7 C0.67 4.69 0.34 2.38 0 0 Z " fill="#8F8F8D" transform="translate(376,545)"/>
<path d="M0 0 C0.99 0.33 1.98 0.66 3 1 C3.94921875 3.28515625 3.94921875 3.28515625 4.6875 6.0625 C4.93886719 6.98160156 5.19023437 7.90070313 5.44921875 8.84765625 C5.63097656 9.55792969 5.81273437 10.26820313 6 11 C4.68 11.33 3.36 11.66 2 12 C2 9 2 9 3 8 C2.34 7.34 1.68 6.68 1 6 C0.60235737 4.01178687 0.26224651 2.01055661 0 0 Z " fill="#858585" transform="translate(234,500)"/>
<path d="M0 0 C3.98175544 2.10148204 6.35039045 4.36905358 9 8 C4.9209831 8 3.14072811 6.51258248 0 4 C0 2.68 0 1.36 0 0 Z " fill="#F8F8F8" transform="translate(271,500)"/>
<path d="M0 0 C2.0625 1.75 2.0625 1.75 4 4 C3.75 6.25 3.75 6.25 3 8 C1.68 7.67 0.36 7.34 -1 7 C-1.33 5.02 -1.66 3.04 -2 1 C-1.34 0.67 -0.68 0.34 0 0 Z " fill="#F8F8F8" transform="translate(267,494)"/>
<path d="M0 0 C0.98484375 0.01804687 1.9696875 0.03609375 2.984375 0.0546875 C4.10585938 0.08949219 4.10585938 0.08949219 5.25 0.125 C5.25 0.455 5.25 0.785 5.25 1.125 C3.39375 1.2796875 3.39375 1.2796875 1.5 1.4375 C-2.077552 1.8673119 -4.01182593 2.70276909 -6.75 5.125 C-7.41 5.125 -8.07 5.125 -8.75 5.125 C-9.08 4.135 -9.41 3.145 -9.75 2.125 C-6.40060119 0.09941119 -3.88037449 -0.09238987 0 0 Z " fill="#A1A1A1" transform="translate(279.75,469.875)"/>
<path d="M0 0 C3.92646477 1.30882159 6.27774921 2.8744528 9 6 C9 6.33 9 6.66 9 7 C7.02 7 5.04 7 3 7 C3.33 5.68 3.66 4.36 4 3 C2.68 3.33 1.36 3.66 0 4 C0 2.68 0 1.36 0 0 Z " fill="#898988" transform="translate(656,461)"/>
<path d="M0 0 C4.29 0 8.58 0 13 0 C12.67 0.99 12.34 1.98 12 3 C7.45194365 3.17835515 4.1205746 2.99785435 0 1 C0 0.67 0 0.34 0 0 Z " fill="#8A8A8A" transform="translate(277,617)"/>
<path d="M0 0 C0.66 0.33 1.32 0.66 2 1 C0.36618755 4.44915962 -0.51774612 5.78347785 -4.0625 7.375 C-7 8 -7 8 -9 7 C-6.03 4.69 -3.06 2.38 0 0 Z " fill="#BBBBBB" transform="translate(469,545)"/>
<path d="M0 0 C1.32 0 2.64 0 4 0 C4 3.63 4 7.26 4 11 C0.88776687 6.85035583 0.47996422 4.99162787 0 0 Z " fill="#B7B7B6" transform="translate(622,517)"/>
<path d="M0 0 C-3.60957611 3.2910841 -6.12637153 4.54663921 -11 5 C-10.34 4.67 -9.68 4.34 -9 4 C-9.33 3.01 -9.66 2.02 -10 1 C-3.375 -1.125 -3.375 -1.125 0 0 Z " fill="#A7A7A7" transform="translate(664,490)"/>
<path d="M0 0 C0.66 0 1.32 0 2 0 C1.54803755 1.60597325 1.08817673 3.20972508 0.625 4.8125 C0.36976563 5.70582031 0.11453125 6.59914063 -0.1484375 7.51953125 C-1 10 -1 10 -3 13 C-4.4727491 9.17085234 -3.50018704 6.71098899 -2 3 C-1.34 2.01 -0.68 1.02 0 0 Z " fill="#A6A6A6" transform="translate(512,451)"/>
<path d="M0 0 C0.33 0 0.66 0 1 0 C1.61538462 7.26153846 1.61538462 7.26153846 -1.5 11 C-2.325 11.66 -3.15 12.32 -4 13 C-4.33 12.34 -4.66 11.68 -5 11 C-4.34 11 -3.68 11 -3 11 C-2.87625 9.9275 -2.7525 8.855 -2.625 7.75 C-2.10356064 4.62136385 -1.59911746 2.66519576 0 0 Z " fill="#AEAEAE" transform="translate(598,445)"/>
<path d="M0 0 C0.66 0.66 1.32 1.32 2 2 C1.67 2.33 1.34 2.66 1 3 C0.55020945 7.26080589 0.55020945 7.26080589 2.5 10.875 C2.995 11.24625 3.49 11.6175 4 12 C3.05125 11.79375 2.1025 11.5875 1.125 11.375 C0.09375 11.25125 -0.9375 11.1275 -2 11 C-2.66 11.66 -3.32 12.32 -4 13 C-3.67 11.68 -3.34 10.36 -3 9 C-2.34 9 -1.68 9 -1 9 C-1.020625 7.700625 -1.04125 6.40125 -1.0625 5.0625 C-1.08399454 3.70834367 -1.07148199 2.35243917 -1 1 C-0.67 0.67 -0.34 0.34 0 0 Z " fill="#151515" transform="translate(356,600)"/>
<path d="M0 0 C1.32 0.33 2.64 0.66 4 1 C3.360625 1.2475 2.72125 1.495 2.0625 1.75 C-0.19635114 2.78813195 -0.19635114 2.78813195 -0.5 5 C-0.665 5.66 -0.83 6.32 -1 7 C-2.32467746 7.6837045 -3.65863633 8.34964186 -5 9 C-6.26804566 11.0335948 -6.26804566 11.0335948 -7 13 C-7 10 -7 10 -4.625 7.625 C-3.75875 6.75875 -2.8925 5.8925 -2 5 C-0.680982 2.33466965 -0.680982 2.33466965 0 0 Z " fill="#B6B6B6" transform="translate(795,432)"/>
<path d="M0 0 C1.1875 1.6875 1.1875 1.6875 2 4 C0.6875 6.625 0.6875 6.625 -1 9 C-1.33 9.66 -1.66 10.32 -2 11 C-3 10 -3 10 -3.25 7.75 C-2.95277626 4.48053884 -1.83765781 2.67991764 0 0 Z " fill="#B6B6B6" transform="translate(500,472)"/>
<path d="M0 0 C2.0625 2.25 2.0625 2.25 4 5 C3.75 7.3125 3.75 7.3125 3 9 C2.01 9 1.02 9 0 9 C-0.84454356 5.62182575 -1.10844919 3.32534757 0 0 Z " fill="#F6F6F6" transform="translate(548,454)"/>
<path d="M0 0 C0.66 0.33 1.32 0.66 2 1 C1.34 3.97 0.68 6.94 0 10 C-1.64350079 6.71299843 -2.41321669 4.52069985 -3 1 C-2.01 0.67 -1.02 0.34 0 0 Z " fill="#999999" transform="translate(237,466)"/>
<path d="M0 0 C0.99 0.33 1.98 0.66 3 1 C2.67 2.65 2.34 4.3 2 6 C1.34 6 0.68 6 0 6 C-0.33 6.66 -0.66 7.32 -1 8 C-1.66 6.68 -2.32 5.36 -3 4 C-2.34 4 -1.68 4 -1 4 C-1.33 3.01 -1.66 2.02 -2 1 C-1.34 0.67 -0.68 0.34 0 0 Z " fill="#CFCFCF" transform="translate(685,448)"/>
<path d="M0 0 C0.99 0.33 1.98 0.66 3 1 C0.03 3.64 -2.94 6.28 -6 9 C-6.66 8.67 -7.32 8.34 -8 8 C-5.6166139 4.85052551 -3.44915025 2.0027324 0 0 Z " fill="#BCBCBC" transform="translate(578,567)"/>
<path d="M0 0 C0.66 0 1.32 0 2 0 C1.71517632 1.41805831 1.42181856 2.83440379 1.125 4.25 C0.88136719 5.43335938 0.88136719 5.43335938 0.6328125 6.640625 C0.00849925 8.96831144 -0.84838542 10.89031952 -2 13 C-3.18771723 9.57056481 -2.80226223 7.62215325 -1.5625 4.25 C-1.27503906 3.45078125 -0.98757813 2.6515625 -0.69140625 1.828125 C-0.46324219 1.22484375 -0.23507812 0.6215625 0 0 Z " fill="#8C8C8C" transform="translate(363,473)"/>
<path d="M0 0 C2.31 0.66 4.62 1.32 7 2 C4.94766315 4.2477975 3.99332739 5.0022242 1 6 C0.34 5.34 -0.32 4.68 -1 4 C-0.625 1.875 -0.625 1.875 0 0 Z " fill="#0A0A0A" transform="translate(354,610)"/>
<path d="M0 0 C0.33 0 0.66 0 1 0 C1.66 3.96 2.32 7.92 3 12 C2.34 12 1.68 12 1 12 C0.67 12.66 0.34 13.32 0 14 C-1.39151652 9.20699867 -0.68662689 4.84864218 0 0 Z " fill="#909090" transform="translate(233,574)"/>
<path d="M0 0 C0.79148438 -0.01417969 1.58296875 -0.02835938 2.3984375 -0.04296875 C4.625 0.1875 4.625 0.1875 7.625 2.1875 C3.005 2.5175 -1.615 2.8475 -6.375 3.1875 C-4.68443313 -0.19363374 -3.68149334 0.02978554 0 0 Z " fill="#E8E8E8" transform="translate(240.375,569.8125)"/>
<path d="M0 0 C0.66 1.32 1.32 2.64 2 4 C1.01 4 0.02 4 -1 4 C-0.67 4.99 -0.34 5.98 0 7 C-1.32 6.34 -2.64 5.68 -4 5 C-4 4.01 -4 3.02 -4 2 C-2.68 1.34 -1.36 0.68 0 0 Z " fill="#F1F1F1" transform="translate(678,520)"/>
<path d="M0 0 C0.33 0 0.66 0 1 0 C1.2519555 3.02346601 1.20421041 4.6402007 -0.3125 7.3125 C-0.869375 7.869375 -1.42625 8.42625 -2 9 C-2.99 9 -3.98 9 -5 9 C-3.75471468 5.55151758 -2.38532951 2.80016942 0 0 Z " fill="#CDCDCD" transform="translate(393,472)"/>
<path d="M0 0 C-1.36370299 2.99220268 -2.94908083 5.29026529 -5.125 7.75 C-5.93324219 8.67039062 -5.93324219 8.67039062 -6.7578125 9.609375 C-7.16773438 10.06828125 -7.57765625 10.5271875 -8 11 C-8.33 10.01 -8.66 9.02 -9 8 C-8.34 8 -7.68 8 -7 8 C-7 7.01 -7 6.02 -7 5 C-2.58139535 0 -2.58139535 0 0 0 Z " fill="#CBCBCB" transform="translate(599,442)"/>
<path d="M0 0 C0.99 0 1.98 0 3 0 C3 2.64 3 5.28 3 8 C2.01 8 1.02 8 0 8 C0 5.36 0 2.72 0 0 Z " fill="#999999" transform="translate(730,432)"/>
<path d="M0 0 C3.96 0 7.92 0 12 0 C8.09567131 1.95216435 5.27786748 2.50639991 1 3 C0.67 2.01 0.34 1.02 0 0 Z " fill="#9D9D9D" transform="translate(472,562)"/>
<path d="M0 0 C2.125 0.9375 2.125 0.9375 4 2 C3.34 3.32 2.68 4.64 2 6 C1.01 5.67 0.02 5.34 -1 5 C-1.6875 2.9375 -1.6875 2.9375 -2 1 C-1.34 0.67 -0.68 0.34 0 0 Z " fill="#989898" transform="translate(298,481)"/>
<path d="M0 0 C0.66 0.33 1.32 0.66 2 1 C2 3 2 5 2 7 C0.35 6.67 -1.3 6.34 -3 6 C-3.33 5.01 -3.66 4.02 -4 3 C-2.68 3 -1.36 3 0 3 C0 2.01 0 1.02 0 0 Z " fill="#0A0A0A" transform="translate(624,406)"/>
<path d="M0 0 C1.65 0.33 3.3 0.66 5 1 C5 1.99 5 2.98 5 4 C3.02 4.99 3.02 4.99 1 6 C0.01 5.01 -0.98 4.02 -2 3 C-1.34 2.67 -0.68 2.34 0 2 C0 1.34 0 0.68 0 0 Z " fill="#CECECE" transform="translate(357,617)"/>
<path d="M0 0 C2.12508244 3.18762365 2.5020163 5.26512223 3 9 C2.01 8.67 1.02 8.34 0 8 C-1.1875 4.4375 -1.1875 4.4375 -2 1 C-1.34 0.67 -0.68 0.34 0 0 Z " fill="#EAEAEA" transform="translate(576,527)"/>
<path d="M0 0 C0.99 0.33 1.98 0.66 3 1 C2.67 2.98 2.34 4.96 2 7 C1.01 7.33 0.02 7.66 -1 8 C-1.125 2.25 -1.125 2.25 0 0 Z " fill="#AFAFAF" transform="translate(490,496)"/>
<path d="M0 0 C-1.65 1.65 -3.3 3.3 -5 5 C-5.99 4.67 -6.98 4.34 -8 4 C-7.67 2.68 -7.34 1.36 -7 0 C-2.25 -1.125 -2.25 -1.125 0 0 Z " fill="#909090" transform="translate(300,616)"/>
<path d="M0 0 C0.99 1.32 1.98 2.64 3 4 C2.34 5.32 1.68 6.64 1 8 C0.34 7.67 -0.32 7.34 -1 7 C-1.04254356 5.00045254 -1.04080783 2.99958364 -1 1 C-0.67 0.67 -0.34 0.34 0 0 Z " fill="#C3C3C3" transform="translate(357,602)"/>
<path d="M0 0 C0.99 0.33 1.98 0.66 3 1 C2.67 2.98 2.34 4.96 2 7 C1.01 7 0.02 7 -1 7 C-0.67 4.69 -0.34 2.38 0 0 Z " fill="#CACACA" transform="translate(348,601)"/>
<path d="M0 0 C2.3129482 2.3129482 2.49580975 3.47904875 3.125 6.625 C3.29257812 7.44226563 3.46015625 8.25953125 3.6328125 9.1015625 C3.81457031 10.04128906 3.81457031 10.04128906 4 11 C3.01 11 2.02 11 1 11 C0 3.375 0 3.375 0 0 Z " fill="#848484" transform="translate(361,516)"/>
<path d="M0 0 C1.32 0.66 2.64 1.32 4 2 C3.34 3.32 2.68 4.64 2 6 C1.01 5.67 0.02 5.34 -1 5 C-0.67 3.35 -0.34 1.7 0 0 Z " fill="#A1A1A1" transform="translate(450,474)"/>
<path d="M0 0 C0.99 0.33 1.98 0.66 3 1 C2.67 2.65 2.34 4.3 2 6 C1.67 5.34 1.34 4.68 1 4 C0.01 4.33 -0.98 4.66 -2 5 C-2 2 -2 2 0 0 Z " fill="#C0C0C0" transform="translate(397,468)"/>
<path d="M0 0 C2.125 0.375 2.125 0.375 4 1 C4 1.99 4 2.98 4 4 C3.01 4.33 2.02 4.66 1 5 C0.01 4.01 -0.98 3.02 -2 2 C-1.34 1.34 -0.68 0.68 0 0 Z " fill="#D4D4D4" transform="translate(676,442)"/>
<path d="M0 0 C0.93065133 2.60582371 1.14917407 3.64198224 0.0625 6.25 C-0.4634375 7.11625 -0.4634375 7.11625 -1 8 C-1.66 7.34 -2.32 6.68 -3 6 C-3 4.68 -3 3.36 -3 2 C-2.01 1.34 -1.02 0.68 0 0 Z " fill="#CDCDCD" transform="translate(519,436)"/>
<path d="M0 0 C3.3 0 6.6 0 10 0 C8.02 0.99 8.02 0.99 6 2 C5.29875 2.391875 4.5975 2.78375 3.875 3.1875 C2.946875 3.5896875 2.946875 3.5896875 2 4 C1.34 3.67 0.68 3.34 0 3 C0 2.01 0 1.02 0 0 Z " fill="#C1C1C1" transform="translate(352,593)"/>
<path d="M0 0 C-2.48952921 2.66735273 -4.63408134 4.55746343 -8 6 C-8 3 -8 3 -6.8125 1.3125 C-4.44258278 -0.40364695 -2.85974334 -0.23187108 0 0 Z " fill="#C3C3C3" transform="translate(685,564)"/>
<path d="M0 0 C0.33 0.99 0.66 1.98 1 3 C1.99 3.33 2.98 3.66 4 4 C3.67 4.99 3.34 5.98 3 7 C1.68 6.67 0.36 6.34 -1 6 C-0.67 4.02 -0.34 2.04 0 0 Z " fill="#C3C3C3" transform="translate(588,557)"/>
<path d="M0 0 C1.37562854 1.28965176 2.70766393 2.62689293 4 4 C4 4.66 4 5.32 4 6 C2.35 5.67 0.7 5.34 -1 5 C-0.67 3.35 -0.34 1.7 0 0 Z " fill="#919191" transform="translate(370,537)"/>
<path d="M0 0 C2.5 2.3125 2.5 2.3125 5 5 C5 5.99 5 6.98 5 8 C4.01 8.33 3.02 8.66 2 9 C2.04125 8.2575 2.0825 7.515 2.125 6.75 C1.99601866 3.91241048 1.42948778 2.41226062 0 0 Z " fill="#818181" transform="translate(245,519)"/>
<path d="M0 0 C1.9451 2.91765 2.45276317 4.62537285 3 8 C1.68 7.67 0.36 7.34 -1 7 C-0.67 5.68 -0.34 4.36 0 3 C-0.66 2.67 -1.32 2.34 -2 2 C-1.34 2 -0.68 2 0 2 C0 1.34 0 0.68 0 0 Z " fill="#8B8B8B" transform="translate(541,505)"/>
<path d="M0 0 C1.32 0.33 2.64 0.66 4 1 C4 2.98 4 4.96 4 7 C3.01 7.495 3.01 7.495 2 8 C1.34 5.36 0.68 2.72 0 0 Z " fill="#C4C4C4" transform="translate(267,488)"/>
<path d="M0 0 C0.33 0.66 0.66 1.32 1 2 C0.06421005 4.35981813 -0.93347808 6.69631264 -2 9 C-2.99 8.34 -3.98 7.68 -5 7 C-5 6.01 -5 5.02 -5 4 C-4.01 3.67 -3.02 3.34 -2 3 C-1.34 2.01 -0.68 1.02 0 0 Z " fill="#848484" transform="translate(505,473)"/>
<path d="M0 0 C0.66 0.33 1.32 0.66 2 1 C2.40729228 3.32156597 2.74438677 5.6568787 3 8 C2.01 8.66 1.02 9.32 0 10 C0 8.02 0 6.04 0 4 C-0.66 3.67 -1.32 3.34 -2 3 C-2 2.34 -2 1.68 -2 1 C-1.34 0.67 -0.68 0.34 0 0 Z " fill="#E8E8E8" transform="translate(514,436)"/>
<path d="M0 0 C0.99 0.33 1.98 0.66 3 1 C2.67 1.33 2.34 1.66 2 2 C2.66 2.66 3.32 3.32 4 4 C2.35 4.33 0.7 4.66 -1 5 C-1 1 -1 1 0 0 Z " fill="#E7E7E7" transform="translate(433,432)"/>
<path d="M0 0 C1.98 1.65 3.96 3.3 6 5 C4.02 5.99 4.02 5.99 2 7 C0.4375 5.75 0.4375 5.75 -1 4 C-0.6875 1.8125 -0.6875 1.8125 0 0 Z " fill="#C0C0C0" transform="translate(351,611)"/>
<path d="M0 0 C0.66 0.33 1.32 0.66 2 1 C1.67 1.99 1.34 2.98 1 4 C-2.0625 5.1875 -2.0625 5.1875 -5 6 C-4.1875 3.5625 -4.1875 3.5625 -3 1 C-2.01 0.67 -1.02 0.34 0 0 Z " fill="#9A9A9A" transform="translate(443,561)"/>
<path d="M0 0 C0.66 0 1.32 0 2 0 C1.34 2.64 0.68 5.28 0 8 C-0.66 7.34 -1.32 6.68 -2 6 C-1.44444444 1.44444444 -1.44444444 1.44444444 0 0 Z " fill="#A4A4A4" transform="translate(486,518)"/>
<path d="M0 0 C1.9451 2.91765 2.45276317 4.62537285 3 8 C1.68 8 0.36 8 -1 8 C-0.67 5.36 -0.34 2.72 0 0 Z " fill="#858585" transform="translate(533,483)"/>
<path d="M0 0 C0 0.99 0 1.98 0 3 C0.3062434 4.33981486 0.63451555 5.67511887 1 7 C0.01 7 -0.98 7 -2 7 C-2.33 5.35 -2.66 3.7 -3 2 C-2.01 1.34 -1.02 0.68 0 0 Z " fill="#F4F4F4" transform="translate(558,477)"/>
<path d="M0 0 C0.99 0.66 1.98 1.32 3 2 C3 2.99 3 3.98 3 5 C2.34 5 1.68 5 1 5 C1 4.34 1 3.68 1 3 C-0.65 3.33 -2.3 3.66 -4 4 C-3.67 3.01 -3.34 2.02 -3 1 C-2.01 0.67 -1.02 0.34 0 0 Z " fill="#EFEFEF" transform="translate(540,432)"/>
<path d="M0 0 C3.6875 1.375 3.6875 1.375 7 3 C7 3.33 7 3.66 7 4 C0.375 4.25 0.375 4.25 -3 2 C-2.01 1.34 -1.02 0.68 0 0 Z " fill="#F4F4F4" transform="translate(278,587)"/>
<path d="M0 0 C0 0.99 0 1.98 0 3 C-2.5 5.1875 -2.5 5.1875 -5 7 C-5.66 6.67 -6.32 6.34 -7 6 C-4.69 4.02 -2.38 2.04 0 0 Z " fill="#D2D2D2" transform="translate(599,579)"/>
<path d="M0 0 C0.99 0.33 1.98 0.66 3 1 C3 1.99 3 2.98 3 4 C1.35 4 -0.3 4 -2 4 C-2 3.01 -2 2.02 -2 1 C-1.34 0.67 -0.68 0.34 0 0 Z " fill="#BABABA" transform="translate(454,556)"/>
<path d="M0 0 C0.66 0 1.32 0 2 0 C2.33 1.98 2.66 3.96 3 6 C2.01 6 1.02 6 0 6 C-0.38218767 4.34385343 -0.71395102 2.67542976 -1 1 C-0.67 0.67 -0.34 0.34 0 0 Z " fill="#D4D4D4" transform="translate(581,529)"/>
<path d="M0 0 C0.625 1.875 0.625 1.875 1 4 C0.34 4.66 -0.32 5.32 -1 6 C-3.125 5.625 -3.125 5.625 -5 5 C-4.67 4.01 -4.34 3.02 -4 2 C-3.01 2 -2.02 2 -1 2 C-0.67 1.34 -0.34 0.68 0 0 Z " fill="#EDEDED" transform="translate(399,524)"/>
<path d="M0 0 C0.66 0.33 1.32 0.66 2 1 C1.6875 3.375 1.6875 3.375 1 6 C0.01 6.66 -0.98 7.32 -2 8 C-1.125 2.25 -1.125 2.25 0 0 Z " fill="#858585" transform="translate(525,480)"/>
<path d="M0 0 C1.37562854 1.28965176 2.70766393 2.62689293 4 4 C4 4.66 4 5.32 4 6 C2.68 6.33 1.36 6.66 0 7 C0 4.69 0 2.38 0 0 Z " fill="#828282" transform="translate(297,476)"/>
<path d="M0 0 C0.66 0.66 1.32 1.32 2 2 C1.01 3.485 1.01 3.485 0 5 C0 5.66 0 6.32 0 7 C-1.98 7.99 -1.98 7.99 -4 9 C-2.94124926 5.59687262 -1.99097846 2.98646769 0 0 Z " fill="#1D1D1D" transform="translate(370,463)"/>
<path d="M0 0 C0.99 0 1.98 0 3 0 C3.66 1.98 4.32 3.96 5 6 C2.525 5.01 2.525 5.01 0 4 C0 2.68 0 1.36 0 0 Z " fill="#E7E7E7" transform="translate(538,435)"/>
<path d="M0 0 C0.33 0 0.66 0 1 0 C1 2.97 1 5.94 1 9 C0.34 8.67 -0.32 8.34 -1 8 C-1.625 4.9375 -1.625 4.9375 -2 2 C-1.34 2 -0.68 2 0 2 C0 1.34 0 0.68 0 0 Z " fill="#E5E5E5" transform="translate(602,401)"/>
</svg>
